<?xml version="1.0" encoding="utf-8"?>
<!-- Generator: Adobe Illustrator 20.1.0, SVG Export Plug-In . SVG Version: 6.00 Build 0)  -->
<svg version="1.1" id="Layer_1" xmlns="http://www.w3.org/2000/svg" xmlns:xlink="http://www.w3.org/1999/xlink" x="0px" y="0px"
	 viewBox="0 0 792 612" style="enable-background:new 0 0 792 612;" xml:space="preserve">
<style type="text/css">
	.st0{clip-path:url(#SVGID_2_);fill:#FFFFFF;}
	.st1{clip-path:url(#SVGID_2_);fill:none;stroke:#000000;stroke-width:0.6;stroke-linejoin:round;stroke-miterlimit:10;}
	.st2{clip-path:url(#SVGID_2_);}
	.st3{font-family:'TimesNewRomanPS-BoldMT';}
	.st4{font-size:11.3333px;}
	.st5{font-family:'TimesNewRomanPSMT';}
	.st6{clip-path:url(#SVGID_2_);fill:none;stroke:#000000;stroke-width:0.4;stroke-miterlimit:8;}
</style>
<g>
	<defs>
		<rect id="SVGID_1_" x="12" y="18" width="768" height="576"/>
	</defs>
	<clipPath id="SVGID_2_">
		<use xlink:href="#SVGID_1_"  style="overflow:visible;"/>
	</clipPath>
	<rect x="12" y="18" class="st0" width="768" height="576"/>
	<rect x="78" y="45.6" class="st1" width="339.6" height="60.1"/>
	<g class="st2">
		<text transform="matrix(1 0 0 1 83.7993 59.1953)"><tspan x="0" y="0" class="st3 st4">I</tspan><tspan x="4.4" y="0" class="st3 st4">d</tspan><tspan x="10.6" y="0" class="st3 st4">e</tspan><tspan x="15.6" y="0" class="st3 st4">n</tspan><tspan x="21.8" y="0" class="st3 st4">t</tspan><tspan x="25.5" y="0" class="st3 st4">i</tspan><tspan x="28.7" y="0" class="st3 st4">f</tspan><tspan x="32.4" y="0" class="st3 st4">i</tspan><tspan x="35.5" y="0" class="st3 st4">c</tspan><tspan x="40.5" y="0" class="st3 st4">a</tspan><tspan x="46.1" y="0" class="st3 st4">t</tspan><tspan x="49.8" y="0" class="st3 st4">i</tspan><tspan x="52.9" y="0" class="st3 st4">o</tspan><tspan x="58.5" y="0" class="st3 st4">n</tspan><tspan x="64.7" y="0" class="st3 st4"> </tspan><tspan x="67.5" y="0" class="st3 st4">o</tspan><tspan x="73.1" y="0" class="st3 st4">f</tspan><tspan x="76.8" y="0" class="st3 st4"> </tspan><tspan x="79.6" y="0" class="st3 st4">hu</tspan><tspan x="92.1" y="0" class="st3 st4">m</tspan><tspan x="101.4" y="0" class="st3 st4">a</tspan><tspan x="107" y="0" class="st3 st4">n</tspan><tspan x="113.2" y="0" class="st3 st4"> e</tspan><tspan x="121" y="0" class="st3 st4">y</tspan><tspan x="126.6" y="0" class="st3 st4">e </tspan><tspan x="134.5" y="0" class="st3 st4">RN</tspan><tspan x="150.7" y="0" class="st3 st4">A</tspan></text>
	</g>
	<g class="st2">
		<text transform="matrix(1 0 0 1 242.4824 59.1953)" class="st3 st4">-</text>
	</g>
	<g class="st2">
		<text transform="matrix(1 0 0 1 246.187 59.1953)"><tspan x="0" y="0" class="st3 st4">s</tspan><tspan x="4.4" y="0" class="st3 st4">e</tspan><tspan x="9.4" y="0" class="st3 st4">q</tspan><tspan x="15.6" y="0" class="st3 st4"> </tspan><tspan x="18.4" y="0" class="st3 st4">s</tspan><tspan x="22.9" y="0" class="st3 st4">a</tspan><tspan x="28.5" y="0" class="st3 st4">m</tspan><tspan x="37.8" y="0" class="st3 st4">p</tspan><tspan x="44" y="0" class="st3 st4">l</tspan><tspan x="47.1" y="0" class="st3 st4">e</tspan><tspan x="52.1" y="0" class="st3 st4">s</tspan></text>
	</g>
	<g class="st2">
		<text transform="matrix(1 0 0 1 83.7993 72.8613)" class="st5 st4">-</text>
	</g>
	<g class="st2">
		<text transform="matrix(1 0 0 1 101.8198 72.8613)"><tspan x="0" y="0" class="st5 st4">603</tspan><tspan x="16.8" y="0" class="st5 st4"> </tspan><tspan x="19.6" y="0" class="st5 st4">s</tspan><tspan x="24.1" y="0" class="st5 st4">a</tspan><tspan x="29.1" y="0" class="st5 st4">m</tspan><tspan x="37.8" y="0" class="st5 st4">p</tspan><tspan x="43.4" y="0" class="st5 st4">l</tspan><tspan x="46.5" y="0" class="st5 st4">e</tspan><tspan x="51.5" y="0" class="st5 st4">s</tspan><tspan x="55.9" y="0" class="st5 st4"> ac</tspan><tspan x="68.7" y="0" class="st5 st4">r</tspan><tspan x="72.4" y="0" class="st5 st4">o</tspan><tspan x="78" y="0" class="st5 st4">ss</tspan><tspan x="86.9" y="0" class="st5 st4"> </tspan><tspan x="89.7" y="0" class="st5 st4">53</tspan><tspan x="100.9" y="0" class="st5 st4"> </tspan><tspan x="103.7" y="0" class="st5 st4">s</tspan><tspan x="108.1" y="0" class="st5 st4">t</tspan><tspan x="111.2" y="0" class="st5 st4">ud</tspan><tspan x="122.4" y="0" class="st5 st4">i</tspan><tspan x="125.5" y="0" class="st5 st4">e</tspan><tspan x="130.6" y="0" class="st5 st4">s</tspan><tspan x="135" y="0" class="st5 st4"> </tspan><tspan x="137.8" y="0" class="st5 st4">i</tspan><tspan x="140.9" y="0" class="st5 st4">n</tspan><tspan x="146.5" y="0" class="st5 st4">iti</tspan><tspan x="155.8" y="0" class="st5 st4">a</tspan><tspan x="160.8" y="0" class="st5 st4">ll</tspan><tspan x="167" y="0" class="st5 st4">y</tspan><tspan x="172.6" y="0" class="st5 st4"> </tspan><tspan x="175.4" y="0" class="st5 st4">f</tspan><tspan x="179.1" y="0" class="st5 st4">ound</tspan><tspan x="201.6" y="0" class="st5 st4"> </tspan><tspan x="204.4" y="0" class="st5 st4">v</tspan><tspan x="210" y="0" class="st5 st4">i</tspan><tspan x="213.1" y="0" class="st5 st4">a </tspan><tspan x="220.9" y="0" class="st5 st4">S</tspan><tspan x="227.1" y="0" class="st5 st4">Q</tspan><tspan x="235.2" y="0" class="st5 st4">L</tspan><tspan x="241.6" y="0" class="st5 st4"> </tspan><tspan x="244.5" y="0" class="st5 st4">s</tspan><tspan x="248.9" y="0" class="st5 st4">ea</tspan><tspan x="258.9" y="0" class="st5 st4">r</tspan><tspan x="262.6" y="0" class="st5 st4">c</tspan><tspan x="267.6" y="0" class="st5 st4">h</tspan></text>
	</g>
	<g class="st2">
		<text transform="matrix(1 0 0 1 83.7993 86.1953)" class="st5 st4">-</text>
	</g>
	<g class="st2">
		<text transform="matrix(1 0 0 1 101.8198 86.1953)"><tspan x="0" y="0" class="st5 st4">P</tspan><tspan x="6.2" y="0" class="st5 st4">a</tspan><tspan x="11.2" y="0" class="st5 st4">r</tspan><tspan x="14.9" y="0" class="st5 st4">e</tspan><tspan x="19.9" y="0" class="st5 st4">d</tspan><tspan x="25.5" y="0" class="st5 st4"> </tspan><tspan x="28.4" y="0" class="st5 st4">do</tspan><tspan x="39.6" y="0" class="st5 st4">w</tspan><tspan x="47.7" y="0" class="st5 st4">n</tspan><tspan x="53.3" y="0" class="st5 st4"> </tspan><tspan x="56.1" y="0" class="st5 st4">by</tspan><tspan x="67.3" y="0" class="st5 st4"> </tspan><tspan x="70.1" y="0" class="st5 st4">h</tspan><tspan x="75.8" y="0" class="st5 st4">a</tspan><tspan x="80.8" y="0" class="st5 st4">nd</tspan><tspan x="92" y="0" class="st5 st4"> </tspan><tspan x="94.8" y="0" class="st5 st4">t</tspan><tspan x="97.9" y="0" class="st5 st4">o</tspan><tspan x="103.5" y="0" class="st5 st4"> </tspan><tspan x="106.3" y="0" class="st5 st4">219</tspan><tspan x="123.1" y="0" class="st5 st4"> </tspan><tspan x="126" y="0" class="st5 st4">s</tspan><tspan x="130.4" y="0" class="st5 st4">a</tspan><tspan x="135.4" y="0" class="st5 st4">m</tspan><tspan x="144.1" y="0" class="st5 st4">p</tspan><tspan x="149.7" y="0" class="st5 st4">l</tspan><tspan x="152.8" y="0" class="st5 st4">e</tspan><tspan x="157.8" y="0" class="st5 st4">s</tspan><tspan x="162.2" y="0" class="st5 st4"> ac</tspan><tspan x="175" y="0" class="st5 st4">r</tspan><tspan x="178.8" y="0" class="st5 st4">o</tspan><tspan x="184.4" y="0" class="st5 st4">ss</tspan><tspan x="193.2" y="0" class="st5 st4"> </tspan><tspan x="196" y="0" class="st5 st4">21</tspan><tspan x="207.2" y="0" class="st5 st4"> </tspan><tspan x="210" y="0" class="st5 st4">s</tspan><tspan x="214.4" y="0" class="st5 st4">t</tspan><tspan x="217.5" y="0" class="st5 st4">ud</tspan><tspan x="228.8" y="0" class="st5 st4">i</tspan><tspan x="231.9" y="0" class="st5 st4">e</tspan><tspan x="236.9" y="0" class="st5 st4">s</tspan></text>
	</g>
	<g class="st2">
		<text transform="matrix(1 0 0 1 83.7993 99.8574)" class="st5 st4">-</text>
	</g>
	<g class="st2">
		<text transform="matrix(1 0 0 1 101.8198 99.8574)"><tspan x="0" y="0" class="st5 st4">G</tspan><tspan x="8.1" y="0" class="st5 st4">TE</tspan><tspan x="21.7" y="0" class="st5 st4">x</tspan><tspan x="27.3" y="0" class="st5 st4"> </tspan><tspan x="30.2" y="0" class="st5 st4">m</tspan><tspan x="38.9" y="0" class="st5 st4">e</tspan><tspan x="43.9" y="0" class="st5 st4">t</tspan><tspan x="47" y="0" class="st5 st4">a</tspan><tspan x="52" y="0" class="st5 st4">d</tspan><tspan x="57.6" y="0" class="st5 st4">a</tspan><tspan x="62.6" y="0" class="st5 st4">t</tspan><tspan x="65.7" y="0" class="st5 st4">a a</tspan><tspan x="78.5" y="0" class="st5 st4">l</tspan><tspan x="81.6" y="0" class="st5 st4">s</tspan><tspan x="86" y="0" class="st5 st4">o</tspan><tspan x="91.7" y="0" class="st5 st4"> </tspan><tspan x="94.5" y="0" class="st5 st4">pu</tspan><tspan x="105.7" y="0" class="st5 st4">ll</tspan><tspan x="111.9" y="0" class="st5 st4">e</tspan><tspan x="116.9" y="0" class="st5 st4">d</tspan></text>
	</g>
	<rect x="61.3" y="116.4" class="st1" width="373" height="73.7"/>
	<g class="st2">
		<text transform="matrix(1 0 0 1 67.0762 129.9644)"><tspan x="0" y="0" class="st3 st4">H</tspan><tspan x="8.7" y="0" class="st3 st4">i</tspan><tspan x="11.8" y="0" class="st3 st4">g</tspan><tspan x="17.4" y="0" class="st3 st4">h</tspan><tspan x="23.6" y="0" class="st3 st4">l</tspan><tspan x="26.7" y="0" class="st3 st4">y</tspan><tspan x="32.4" y="0" class="st3 st4"> e</tspan><tspan x="40.2" y="0" class="st3 st4">ff</tspan><tspan x="47.6" y="0" class="st3 st4">i</tspan><tspan x="50.7" y="0" class="st3 st4">c</tspan><tspan x="55.7" y="0" class="st3 st4">i</tspan><tspan x="58.8" y="0" class="st3 st4">e</tspan><tspan x="63.8" y="0" class="st3 st4">n</tspan><tspan x="70" y="0" class="st3 st4">t</tspan><tspan x="73.7" y="0" class="st3 st4"> </tspan><tspan x="76.5" y="0" class="st3 st4">qu</tspan><tspan x="89" y="0" class="st3 st4">a</tspan><tspan x="94.6" y="0" class="st3 st4">n</tspan><tspan x="100.8" y="0" class="st3 st4">t</tspan><tspan x="104.5" y="0" class="st3 st4">i</tspan><tspan x="107.6" y="0" class="st3 st4">f</tspan><tspan x="111.3" y="0" class="st3 st4">i</tspan><tspan x="114.4" y="0" class="st3 st4">c</tspan><tspan x="119.4" y="0" class="st3 st4">a</tspan><tspan x="125" y="0" class="st3 st4">t</tspan><tspan x="128.7" y="0" class="st3 st4">i</tspan><tspan x="131.8" y="0" class="st3 st4">o</tspan><tspan x="137.4" y="0" class="st3 st4">n</tspan><tspan x="143.6" y="0" class="st3 st4"> </tspan><tspan x="146.5" y="0" class="st3 st4">o</tspan><tspan x="152.1" y="0" class="st3 st4">f</tspan><tspan x="155.8" y="0" class="st3 st4"> </tspan><tspan x="158.6" y="0" class="st3 st4">g</tspan><tspan x="164.2" y="0" class="st3 st4">e</tspan><tspan x="169.2" y="0" class="st3 st4">n</tspan><tspan x="175.4" y="0" class="st3 st4">e e</tspan><tspan x="188.2" y="0" class="st3 st4">x</tspan><tspan x="193.9" y="0" class="st3 st4">p</tspan><tspan x="200.1" y="0" class="st3 st4">r</tspan><tspan x="204.9" y="0" class="st3 st4">e</tspan><tspan x="209.9" y="0" class="st3 st4">ss</tspan><tspan x="218.7" y="0" class="st3 st4">i</tspan><tspan x="221.8" y="0" class="st3 st4">o</tspan><tspan x="227.4" y="0" class="st3 st4">n</tspan></text>
	</g>
	<g class="st2">
		<text transform="matrix(1 0 0 1 67.0762 143.6304)" class="st5 st4">-</text>
	</g>
	<g class="st2">
		<text transform="matrix(1 0 0 1 85.0967 143.6304)"><tspan x="0" y="0" class="st5 st4">R</tspan><tspan x="7.5" y="0" class="st5 st4">a</tspan><tspan x="12.5" y="0" class="st5 st4">w</tspan><tspan x="20.6" y="0" class="st5 st4"> </tspan><tspan x="23.4" y="0" class="st5 st4">s</tspan><tspan x="27.9" y="0" class="st5 st4">e</tspan><tspan x="32.9" y="0" class="st5 st4">qu</tspan><tspan x="44.1" y="0" class="st5 st4">e</tspan><tspan x="49.1" y="0" class="st5 st4">n</tspan><tspan x="54.7" y="0" class="st5 st4">ce </tspan><tspan x="67.5" y="0" class="st5 st4">d</tspan><tspan x="73.1" y="0" class="st5 st4">a</tspan><tspan x="78.1" y="0" class="st5 st4">t</tspan><tspan x="81.3" y="0" class="st5 st4">a </tspan><tspan x="89.1" y="0" class="st5 st4">(f</tspan><tspan x="96.5" y="0" class="st5 st4">a</tspan><tspan x="101.5" y="0" class="st5 st4">s</tspan><tspan x="105.9" y="0" class="st5 st4">t</tspan><tspan x="109" y="0" class="st5 st4">q</tspan><tspan x="114.6" y="0" class="st5 st4">)</tspan><tspan x="118.3" y="0" class="st5 st4"> </tspan><tspan x="121.1" y="0" class="st5 st4">f</tspan><tspan x="124.8" y="0" class="st5 st4">o</tspan><tspan x="130.4" y="0" class="st5 st4">r</tspan><tspan x="134.2" y="0" class="st5 st4"> eac</tspan><tspan x="152" y="0" class="st5 st4">h</tspan><tspan x="157.6" y="0" class="st5 st4"> </tspan><tspan x="160.4" y="0" class="st5 st4">s</tspan><tspan x="164.8" y="0" class="st5 st4">a</tspan><tspan x="169.8" y="0" class="st5 st4">m</tspan><tspan x="178.5" y="0" class="st5 st4">p</tspan><tspan x="184.1" y="0" class="st5 st4">l</tspan><tspan x="187.3" y="0" class="st5 st4">e </tspan><tspan x="195.1" y="0" class="st5 st4">w</tspan><tspan x="203.2" y="0" class="st5 st4">a</tspan><tspan x="208.2" y="0" class="st5 st4">s</tspan><tspan x="212.6" y="0" class="st5 st4"> </tspan><tspan x="215.4" y="0" class="st5 st4">do</tspan><tspan x="226.6" y="0" class="st5 st4">w</tspan><tspan x="234.8" y="0" class="st5 st4">n</tspan><tspan x="240.4" y="0" class="st5 st4">l</tspan><tspan x="243.5" y="0" class="st5 st4">o</tspan><tspan x="249.1" y="0" class="st5 st4">a</tspan><tspan x="254.1" y="0" class="st5 st4">d</tspan><tspan x="259.7" y="0" class="st5 st4">e</tspan><tspan x="264.7" y="0" class="st5 st4">d</tspan></text>
	</g>
	<g class="st2">
		<text transform="matrix(1 0 0 1 67.0762 156.9644)" class="st5 st4">-</text>
	</g>
	<g class="st2">
		<text transform="matrix(1 0 0 1 85.0967 156.9644)"><tspan x="0" y="0" class="st5 st4">S</tspan><tspan x="6.2" y="0" class="st5 st4">a</tspan><tspan x="11.2" y="0" class="st5 st4">l</tspan><tspan x="14.3" y="0" class="st5 st4">m</tspan><tspan x="23" y="0" class="st5 st4">on</tspan><tspan x="34.3" y="0" class="st5 st4"> </tspan><tspan x="37.1" y="0" class="st5 st4">u</tspan><tspan x="42.7" y="0" class="st5 st4">s</tspan><tspan x="47.1" y="0" class="st5 st4">e</tspan><tspan x="52.1" y="0" class="st5 st4">d</tspan><tspan x="57.7" y="0" class="st5 st4"> </tspan><tspan x="60.5" y="0" class="st5 st4">f</tspan><tspan x="64.2" y="0" class="st5 st4">o</tspan><tspan x="69.8" y="0" class="st5 st4">r</tspan><tspan x="73.5" y="0" class="st5 st4"> </tspan><tspan x="76.3" y="0" class="st5 st4">r</tspan><tspan x="80.1" y="0" class="st5 st4">e</tspan><tspan x="85.1" y="0" class="st5 st4">f</tspan><tspan x="88.8" y="0" class="st5 st4">e</tspan><tspan x="93.8" y="0" class="st5 st4">r</tspan><tspan x="97.5" y="0" class="st5 st4">e</tspan><tspan x="102.5" y="0" class="st5 st4">n</tspan><tspan x="108.1" y="0" class="st5 st4">c</tspan><tspan x="113.1" y="0" class="st5 st4">e</tspan></text>
	</g>
	<g class="st2">
		<text transform="matrix(1 0 0 1 203.1333 156.9644)" class="st5 st4">-</text>
	</g>
	<g class="st2">
		<text transform="matrix(1 0 0 1 206.8379 156.9644)"><tspan x="0" y="0" class="st5 st4">fr</tspan><tspan x="7.4" y="0" class="st5 st4">ee </tspan><tspan x="20.2" y="0" class="st5 st4">qu</tspan><tspan x="31.5" y="0" class="st5 st4">a</tspan><tspan x="36.5" y="0" class="st5 st4">n</tspan><tspan x="42.1" y="0" class="st5 st4">ti</tspan><tspan x="48.3" y="0" class="st5 st4">f</tspan><tspan x="52" y="0" class="st5 st4">i</tspan><tspan x="55.1" y="0" class="st5 st4">ca</tspan><tspan x="65.1" y="0" class="st5 st4">ti</tspan><tspan x="71.3" y="0" class="st5 st4">on</tspan><tspan x="82.5" y="0" class="st5 st4"> </tspan><tspan x="85.3" y="0" class="st5 st4">o</tspan><tspan x="91" y="0" class="st5 st4">f</tspan><tspan x="94.7" y="0" class="st5 st4"> </tspan><tspan x="97.5" y="0" class="st5 st4">g</tspan><tspan x="103.1" y="0" class="st5 st4">e</tspan><tspan x="108.1" y="0" class="st5 st4">n</tspan><tspan x="113.7" y="0" class="st5 st4">e e</tspan><tspan x="126.5" y="0" class="st5 st4">xp</tspan><tspan x="137.7" y="0" class="st5 st4">r</tspan><tspan x="141.5" y="0" class="st5 st4">e</tspan><tspan x="146.5" y="0" class="st5 st4">ss</tspan><tspan x="155.3" y="0" class="st5 st4">i</tspan><tspan x="158.4" y="0" class="st5 st4">o</tspan><tspan x="164" y="0" class="st5 st4">n</tspan></text>
	</g>
	<g class="st2">
		<text transform="matrix(1 0 0 1 67.0762 170.626)" class="st5 st4">-</text>
	</g>
	<g class="st2">
		<text transform="matrix(1 0 0 1 85.0967 170.626)"><tspan x="0" y="0" class="st5 st4">S</tspan><tspan x="6.2" y="0" class="st5 st4">a</tspan><tspan x="11.2" y="0" class="st5 st4">l</tspan><tspan x="14.3" y="0" class="st5 st4">m</tspan><tspan x="23" y="0" class="st5 st4">on</tspan><tspan x="34.3" y="0" class="st5 st4"> </tspan><tspan x="37.1" y="0" class="st5 st4">r</tspan><tspan x="40.8" y="0" class="st5 st4">e</tspan></text>
	</g>
	<g class="st2">
		<text transform="matrix(1 0 0 1 130.8496 170.626)" class="st5 st4">-</text>
	</g>
	<g class="st2">
		<text transform="matrix(1 0 0 1 134.5542 170.626)"><tspan x="0" y="0" class="st5 st4">r</tspan><tspan x="3.7" y="0" class="st5 st4">un</tspan><tspan x="14.9" y="0" class="st5 st4"> a</tspan><tspan x="22.7" y="0" class="st5 st4">f</tspan><tspan x="26.5" y="0" class="st5 st4">t</tspan><tspan x="29.6" y="0" class="st5 st4">e</tspan><tspan x="34.6" y="0" class="st5 st4">r</tspan><tspan x="38.3" y="0" class="st5 st4"> </tspan><tspan x="41.1" y="0" class="st5 st4">m</tspan><tspan x="49.8" y="0" class="st5 st4">od</tspan><tspan x="61" y="0" class="st5 st4">i</tspan><tspan x="64.1" y="0" class="st5 st4">f</tspan><tspan x="67.8" y="0" class="st5 st4">y</tspan><tspan x="73.4" y="0" class="st5 st4">i</tspan><tspan x="76.5" y="0" class="st5 st4">ng</tspan><tspan x="87.8" y="0" class="st5 st4"> </tspan><tspan x="90.6" y="0" class="st5 st4">t</tspan><tspan x="93.7" y="0" class="st5 st4">r</tspan><tspan x="97.4" y="0" class="st5 st4">a</tspan><tspan x="102.4" y="0" class="st5 st4">n</tspan><tspan x="108" y="0" class="st5 st4">s</tspan><tspan x="112.4" y="0" class="st5 st4">c</tspan><tspan x="117.4" y="0" class="st5 st4">r</tspan><tspan x="121.1" y="0" class="st5 st4">i</tspan><tspan x="124.2" y="0" class="st5 st4">p</tspan><tspan x="129.8" y="0" class="st5 st4">t</tspan><tspan x="132.9" y="0" class="st5 st4">o</tspan><tspan x="138.5" y="0" class="st5 st4">m</tspan><tspan x="147.3" y="0" class="st5 st4">e </tspan><tspan x="155.1" y="0" class="st5 st4">t</tspan><tspan x="158.2" y="0" class="st5 st4">o</tspan><tspan x="163.8" y="0" class="st5 st4"> </tspan><tspan x="166.6" y="0" class="st5 st4">r</tspan><tspan x="170.3" y="0" class="st5 st4">e</tspan><tspan x="175.3" y="0" class="st5 st4">m</tspan><tspan x="184" y="0" class="st5 st4">ov</tspan><tspan x="195.2" y="0" class="st5 st4">e </tspan><tspan x="203.1" y="0" class="st5 st4">l</tspan><tspan x="206.2" y="0" class="st5 st4">o</tspan><tspan x="211.8" y="0" class="st5 st4">w</tspan><tspan x="219.9" y="0" class="st5 st4">l</tspan><tspan x="223" y="0" class="st5 st4">y</tspan><tspan x="228.6" y="0" class="st5 st4"> e</tspan><tspan x="236.4" y="0" class="st5 st4">xp</tspan><tspan x="247.6" y="0" class="st5 st4">r</tspan><tspan x="251.4" y="0" class="st5 st4">e</tspan><tspan x="256.4" y="0" class="st5 st4">ss</tspan><tspan x="265.2" y="0" class="st5 st4">e</tspan><tspan x="270.2" y="0" class="st5 st4">d</tspan><tspan x="275.8" y="0" class="st5 st4"> </tspan></text>
	</g>
	<g class="st2">
		<text transform="matrix(1 0 0 1 85.0967 183.9634)"><tspan x="0" y="0" class="st5 st4">t</tspan><tspan x="3.1" y="0" class="st5 st4">r</tspan><tspan x="6.8" y="0" class="st5 st4">a</tspan><tspan x="11.8" y="0" class="st5 st4">n</tspan><tspan x="17.4" y="0" class="st5 st4">s</tspan><tspan x="21.8" y="0" class="st5 st4">c</tspan><tspan x="26.8" y="0" class="st5 st4">r</tspan><tspan x="30.6" y="0" class="st5 st4">i</tspan><tspan x="33.7" y="0" class="st5 st4">p</tspan><tspan x="39.3" y="0" class="st5 st4">t</tspan><tspan x="42.4" y="0" class="st5 st4">s</tspan></text>
	</g>
	<rect x="75" y="199.6" class="st1" width="345.6" height="46.5"/>
	<g class="st2">
		<text transform="matrix(1 0 0 1 80.7656 213.1582)"><tspan x="0" y="0" class="st3 st4">C</tspan><tspan x="8.1" y="0" class="st3 st4">o</tspan><tspan x="13.7" y="0" class="st3 st4">ll</tspan><tspan x="19.9" y="0" class="st3 st4">a</tspan><tspan x="25.5" y="0" class="st3 st4">p</tspan><tspan x="31.8" y="0" class="st3 st4">s</tspan><tspan x="36.2" y="0" class="st3 st4">e </tspan><tspan x="44" y="0" class="st3 st4">o</tspan><tspan x="49.6" y="0" class="st3 st4">f</tspan><tspan x="53.3" y="0" class="st3 st4"> </tspan><tspan x="56.1" y="0" class="st3 st4">t</tspan><tspan x="59.8" y="0" class="st3 st4">r</tspan><tspan x="64.8" y="0" class="st3 st4">a</tspan><tspan x="70.4" y="0" class="st3 st4">n</tspan><tspan x="76.6" y="0" class="st3 st4">s</tspan><tspan x="81.1" y="0" class="st3 st4">cr</tspan><tspan x="91.1" y="0" class="st3 st4">i</tspan><tspan x="94.2" y="0" class="st3 st4">p</tspan><tspan x="100.4" y="0" class="st3 st4">t</tspan><tspan x="104.1" y="0" class="st3 st4"> </tspan><tspan x="106.9" y="0" class="st3 st4">qu</tspan><tspan x="119.3" y="0" class="st3 st4">a</tspan><tspan x="124.9" y="0" class="st3 st4">n</tspan><tspan x="131.2" y="0" class="st3 st4">t</tspan><tspan x="134.9" y="0" class="st3 st4">i</tspan><tspan x="138" y="0" class="st3 st4">f</tspan><tspan x="141.7" y="0" class="st3 st4">i</tspan><tspan x="144.8" y="0" class="st3 st4">c</tspan><tspan x="149.8" y="0" class="st3 st4">a</tspan><tspan x="155.4" y="0" class="st3 st4">t</tspan><tspan x="159.1" y="0" class="st3 st4">i</tspan><tspan x="162.2" y="0" class="st3 st4">o</tspan><tspan x="167.8" y="0" class="st3 st4">n</tspan><tspan x="174" y="0" class="st3 st4"> </tspan><tspan x="176.8" y="0" class="st3 st4">t</tspan><tspan x="180.5" y="0" class="st3 st4">o</tspan><tspan x="186.1" y="0" class="st3 st4"> </tspan><tspan x="189" y="0" class="st3 st4">t</tspan><tspan x="192.7" y="0" class="st3 st4">h</tspan><tspan x="198.9" y="0" class="st3 st4">e </tspan><tspan x="206.7" y="0" class="st3 st4">g</tspan><tspan x="212.3" y="0" class="st3 st4">e</tspan><tspan x="217.3" y="0" class="st3 st4">n</tspan><tspan x="223.5" y="0" class="st3 st4">e </tspan><tspan x="231.3" y="0" class="st3 st4">l</tspan><tspan x="234.4" y="0" class="st3 st4">e</tspan><tspan x="239.5" y="0" class="st3 st4">v</tspan><tspan x="245.1" y="0" class="st3 st4">e</tspan><tspan x="250.1" y="0" class="st3 st4">l</tspan></text>
	</g>
	<g class="st2">
		<text transform="matrix(1 0 0 1 80.7656 226.8242)" class="st5 st4">-</text>
	</g>
	<g class="st2">
		<text transform="matrix(1 0 0 1 98.7866 226.8242)"><tspan x="0" y="0" class="st5 st4">t</tspan><tspan x="3.1" y="0" class="st5 st4">x</tspan><tspan x="8.7" y="0" class="st5 st4">i</tspan><tspan x="11.8" y="0" class="st5 st4">m</tspan><tspan x="20.5" y="0" class="st5 st4">po</tspan><tspan x="31.8" y="0" class="st5 st4">r</tspan><tspan x="35.5" y="0" class="st5 st4">t</tspan><tspan x="38.6" y="0" class="st5 st4"> </tspan><tspan x="41.4" y="0" class="st5 st4">t</tspan><tspan x="44.5" y="0" class="st5 st4">oo</tspan><tspan x="55.7" y="0" class="st5 st4">l</tspan><tspan x="58.8" y="0" class="st5 st4"> </tspan><tspan x="61.6" y="0" class="st5 st4">t</tspan><tspan x="64.7" y="0" class="st5 st4">o</tspan><tspan x="70.3" y="0" class="st5 st4"> c</tspan><tspan x="78.1" y="0" class="st5 st4">o</tspan><tspan x="83.7" y="0" class="st5 st4">ll</tspan><tspan x="90" y="0" class="st5 st4">a</tspan><tspan x="95" y="0" class="st5 st4">p</tspan><tspan x="100.6" y="0" class="st5 st4">s</tspan><tspan x="105" y="0" class="st5 st4">e a</tspan><tspan x="117.8" y="0" class="st5 st4">nd</tspan><tspan x="129" y="0" class="st5 st4"> </tspan><tspan x="131.8" y="0" class="st5 st4">p</tspan><tspan x="137.5" y="0" class="st5 st4">e</tspan><tspan x="142.5" y="0" class="st5 st4">rf</tspan><tspan x="149.9" y="0" class="st5 st4">o</tspan><tspan x="155.5" y="0" class="st5 st4">r</tspan><tspan x="159.2" y="0" class="st5 st4">m</tspan><tspan x="167.9" y="0" class="st5 st4"> </tspan><tspan x="170.5" y="0" class="st5 st4">T</tspan><tspan x="177.3" y="0" class="st5 st4">P</tspan><tspan x="183.5" y="0" class="st5 st4">M</tspan><tspan x="193.5" y="0" class="st5 st4"> ca</tspan><tspan x="206.4" y="0" class="st5 st4">l</tspan><tspan x="209.5" y="0" class="st5 st4">c</tspan><tspan x="214.5" y="0" class="st5 st4">u</tspan><tspan x="220.1" y="0" class="st5 st4">l</tspan><tspan x="223.2" y="0" class="st5 st4">a</tspan><tspan x="228.2" y="0" class="st5 st4">ti</tspan><tspan x="234.4" y="0" class="st5 st4">o</tspan><tspan x="240" y="0" class="st5 st4">n</tspan></text>
	</g>
	<g class="st2">
		<text transform="matrix(1 0 0 1 80.7656 240.1582)" class="st5 st4">-</text>
	</g>
	<g class="st2">
		<text transform="matrix(1 0 0 1 98.7866 240.1582)"><tspan x="0" y="0" class="st5 st4">G</tspan><tspan x="8.1" y="0" class="st5 st4">e</tspan><tspan x="13.1" y="0" class="st5 st4">n</tspan><tspan x="18.7" y="0" class="st5 st4">e</tspan></text>
	</g>
	<g class="st2">
		<text transform="matrix(1 0 0 1 122.5142 240.1582)" class="st5 st4">-</text>
	</g>
	<g class="st2">
		<text transform="matrix(1 0 0 1 126.2183 240.1582)"><tspan x="0" y="0" class="st5 st4">l</tspan><tspan x="3.1" y="0" class="st5 st4">e</tspan><tspan x="8.1" y="0" class="st5 st4">v</tspan><tspan x="13.7" y="0" class="st5 st4">e</tspan><tspan x="18.7" y="0" class="st5 st4">l</tspan><tspan x="21.8" y="0" class="st5 st4"> </tspan><tspan x="24.6" y="0" class="st5 st4">qu</tspan><tspan x="35.9" y="0" class="st5 st4">a</tspan><tspan x="40.9" y="0" class="st5 st4">n</tspan><tspan x="46.5" y="0" class="st5 st4">ti</tspan><tspan x="52.7" y="0" class="st5 st4">f</tspan><tspan x="56.4" y="0" class="st5 st4">i</tspan><tspan x="59.5" y="0" class="st5 st4">ca</tspan><tspan x="69.5" y="0" class="st5 st4">ti</tspan><tspan x="75.7" y="0" class="st5 st4">on</tspan><tspan x="86.9" y="0" class="st5 st4"> </tspan><tspan x="89.7" y="0" class="st5 st4">m</tspan><tspan x="98.5" y="0" class="st5 st4">o</tspan><tspan x="104.1" y="0" class="st5 st4">r</tspan><tspan x="107.8" y="0" class="st5 st4">e </tspan><tspan x="115.6" y="0" class="st5 st4">r</tspan><tspan x="119.3" y="0" class="st5 st4">e</tspan><tspan x="124.3" y="0" class="st5 st4">li</tspan><tspan x="130.5" y="0" class="st5 st4">a</tspan><tspan x="135.5" y="0" class="st5 st4">b</tspan><tspan x="141.1" y="0" class="st5 st4">l</tspan><tspan x="144.2" y="0" class="st5 st4">e </tspan><tspan x="152.1" y="0" class="st5 st4">(</tspan><tspan x="155.8" y="0" class="st5 st4">S</tspan><tspan x="162" y="0" class="st5 st4">on</tspan><tspan x="173.2" y="0" class="st5 st4">e</tspan><tspan x="178.2" y="0" class="st5 st4">s</tspan><tspan x="182.6" y="0" class="st5 st4">on</tspan><tspan x="193.8" y="0" class="st5 st4"> e</tspan><tspan x="201.7" y="0" class="st5 st4">t</tspan><tspan x="204.8" y="0" class="st5 st4"> a</tspan><tspan x="212.6" y="0" class="st5 st4">l</tspan><tspan x="215.7" y="0" class="st5 st4">. </tspan><tspan x="221.3" y="0" class="st5 st4">2016</tspan><tspan x="243.7" y="0" class="st5 st4">)</tspan></text>
	</g>
	<rect x="114" y="257.2" class="st1" width="267.6" height="19.4"/>
	<g class="st2">
		<text transform="matrix(1 0 0 1 134.042 270.7705)"><tspan x="0" y="0" class="st3 st4">R</tspan><tspan x="8.1" y="0" class="st3 st4">e</tspan><tspan x="13.1" y="0" class="st3 st4">m</tspan><tspan x="22.4" y="0" class="st3 st4">ova</tspan><tspan x="39.3" y="0" class="st3 st4">l</tspan><tspan x="42.4" y="0" class="st3 st4"> </tspan><tspan x="45.2" y="0" class="st3 st4">o</tspan><tspan x="50.8" y="0" class="st3 st4">f</tspan><tspan x="54.5" y="0" class="st3 st4"> </tspan><tspan x="57.3" y="0" class="st3 st4">s</tspan><tspan x="61.7" y="0" class="st3 st4">a</tspan><tspan x="67.3" y="0" class="st3 st4">m</tspan><tspan x="76.6" y="0" class="st3 st4">p</tspan><tspan x="82.9" y="0" class="st3 st4">l</tspan><tspan x="86" y="0" class="st3 st4">e</tspan><tspan x="91" y="0" class="st3 st4">s</tspan><tspan x="95.4" y="0" class="st3 st4"> </tspan><tspan x="98.2" y="0" class="st3 st4">w</tspan><tspan x="106.3" y="0" class="st3 st4">i</tspan><tspan x="109.4" y="0" class="st3 st4">t</tspan><tspan x="113.1" y="0" class="st3 st4">h</tspan><tspan x="119.3" y="0" class="st3 st4"> </tspan><tspan x="122.1" y="0" class="st3 st4">l</tspan><tspan x="125.2" y="0" class="st3 st4">o</tspan><tspan x="130.9" y="0" class="st3 st4">w</tspan><tspan x="139" y="0" class="st3 st4"> </tspan><tspan x="141.8" y="0" class="st3 st4">ov</tspan><tspan x="153" y="0" class="st3 st4">er</tspan><tspan x="163" y="0" class="st3 st4">a</tspan><tspan x="168.6" y="0" class="st3 st4">ll</tspan><tspan x="174.8" y="0" class="st3 st4"> e</tspan><tspan x="182.7" y="0" class="st3 st4">x</tspan><tspan x="188.3" y="0" class="st3 st4">p</tspan><tspan x="194.5" y="0" class="st3 st4">r</tspan><tspan x="199.3" y="0" class="st3 st4">e</tspan><tspan x="204.3" y="0" class="st3 st4">ss</tspan><tspan x="213.1" y="0" class="st3 st4">i</tspan><tspan x="216.2" y="0" class="st3 st4">o</tspan><tspan x="221.8" y="0" class="st3 st4">n</tspan></text>
	</g>
	<rect x="75.5" y="286.7" class="st1" width="344.6" height="33"/>
	<g class="st2">
		<text transform="matrix(1 0 0 1 81.29 300.2896)"><tspan x="0" y="0" class="st3 st4">Q</tspan><tspan x="8.7" y="0" class="st3 st4">u</tspan><tspan x="14.9" y="0" class="st3 st4">a</tspan><tspan x="20.5" y="0" class="st3 st4">n</tspan><tspan x="26.7" y="0" class="st3 st4">t</tspan><tspan x="30.5" y="0" class="st3 st4">il</tspan><tspan x="36.7" y="0" class="st3 st4">e </tspan><tspan x="44.5" y="0" class="st3 st4">n</tspan><tspan x="50.7" y="0" class="st3 st4">o</tspan><tspan x="56.3" y="0" class="st3 st4">r</tspan><tspan x="61.3" y="0" class="st3 st4">m</tspan><tspan x="70.6" y="0" class="st3 st4">a</tspan><tspan x="76.2" y="0" class="st3 st4">li</tspan><tspan x="82.4" y="0" class="st3 st4">z</tspan><tspan x="87.4" y="0" class="st3 st4">a</tspan><tspan x="93.1" y="0" class="st3 st4">t</tspan><tspan x="96.8" y="0" class="st3 st4">i</tspan><tspan x="99.9" y="0" class="st3 st4">o</tspan><tspan x="105.5" y="0" class="st3 st4">n</tspan><tspan x="111.7" y="0" class="st3 st4"> </tspan><tspan x="114.5" y="0" class="st3 st4">b</tspan><tspan x="120.7" y="0" class="st3 st4">y</tspan><tspan x="126.3" y="0" class="st3 st4"> </tspan><tspan x="129.1" y="0" class="st3 st4">t</tspan><tspan x="132.8" y="0" class="st3 st4">i</tspan><tspan x="135.9" y="0" class="st3 st4">ss</tspan><tspan x="144.8" y="0" class="st3 st4">u</tspan><tspan x="151" y="0" class="st3 st4">e </tspan><tspan x="158.8" y="0" class="st3 st4">a</tspan><tspan x="164.4" y="0" class="st3 st4">nd</tspan><tspan x="176.8" y="0" class="st3 st4"> </tspan><tspan x="179.6" y="0" class="st3 st4">a</tspan><tspan x="185.3" y="0" class="st3 st4">c</tspan><tspan x="190.3" y="0" class="st3 st4">r</tspan><tspan x="195.1" y="0" class="st3 st4">o</tspan><tspan x="200.7" y="0" class="st3 st4">ss</tspan><tspan x="209.5" y="0" class="st3 st4"> </tspan><tspan x="212.3" y="0" class="st3 st4">t</tspan><tspan x="216" y="0" class="st3 st4">h</tspan><tspan x="222.2" y="0" class="st3 st4">e e</tspan><tspan x="235" y="0" class="st3 st4">n</tspan><tspan x="241.3" y="0" class="st3 st4">t</tspan><tspan x="245" y="0" class="st3 st4">i</tspan><tspan x="248.1" y="0" class="st3 st4">r</tspan><tspan x="252.9" y="0" class="st3 st4">e </tspan><tspan x="260.7" y="0" class="st3 st4">d</tspan><tspan x="266.9" y="0" class="st3 st4">a</tspan><tspan x="272.5" y="0" class="st3 st4">t</tspan><tspan x="276.2" y="0" class="st3 st4">a</tspan><tspan x="281.8" y="0" class="st3 st4"> </tspan><tspan x="284.6" y="0" class="st3 st4">s</tspan><tspan x="289.1" y="0" class="st3 st4">e</tspan><tspan x="294.1" y="0" class="st3 st4">t</tspan></text>
	</g>
	<g class="st2">
		<text transform="matrix(1 0 0 1 81.29 313.9551)" class="st5 st4">-</text>
	</g>
	<g class="st2">
		<text transform="matrix(1 0 0 1 99.311 313.9551)" class="st5 st4">q</text>
	</g>
	<g class="st2">
		<text transform="matrix(1 0 0 1 104.9175 313.9551)"><tspan x="0" y="0" class="st5 st4">s</tspan><tspan x="4.4" y="0" class="st5 st4">m</tspan><tspan x="13.1" y="0" class="st5 st4">oo</tspan><tspan x="24.3" y="0" class="st5 st4">t</tspan><tspan x="27.4" y="0" class="st5 st4">h</tspan><tspan x="33.1" y="0" class="st5 st4"> </tspan><tspan x="35.9" y="0" class="st5 st4">(H</tspan><tspan x="47.7" y="0" class="st5 st4">i</tspan><tspan x="50.8" y="0" class="st5 st4">c</tspan><tspan x="55.8" y="0" class="st5 st4">k</tspan><tspan x="61.4" y="0" class="st5 st4">s</tspan><tspan x="65.8" y="0" class="st5 st4"> e</tspan><tspan x="73.6" y="0" class="st5 st4">t</tspan><tspan x="76.7" y="0" class="st5 st4"> a</tspan><tspan x="84.6" y="0" class="st5 st4">l</tspan><tspan x="87.7" y="0" class="st5 st4">. </tspan><tspan x="93.3" y="0" class="st5 st4">2016</tspan><tspan x="115.7" y="0" class="st5 st4">)</tspan></text>
	</g>
	<rect x="160.4" y="331.6" class="st1" width="174.8" height="33"/>
	<g class="st2">
		<text transform="matrix(1 0 0 1 166.1719 345.1904)"><tspan x="0" y="0" class="st3 st4">S</tspan><tspan x="6.2" y="0" class="st3 st4">c</tspan><tspan x="11.2" y="0" class="st3 st4">a</tspan><tspan x="16.8" y="0" class="st3 st4">l</tspan><tspan x="19.9" y="0" class="st3 st4">e e</tspan><tspan x="32.8" y="0" class="st3 st4">x</tspan><tspan x="38.4" y="0" class="st3 st4">p</tspan><tspan x="44.6" y="0" class="st3 st4">r</tspan><tspan x="49.4" y="0" class="st3 st4">e</tspan><tspan x="54.4" y="0" class="st3 st4">ss</tspan><tspan x="63.2" y="0" class="st3 st4">i</tspan><tspan x="66.3" y="0" class="st3 st4">o</tspan><tspan x="71.9" y="0" class="st3 st4">n</tspan><tspan x="78.1" y="0" class="st3 st4"> </tspan><tspan x="81" y="0" class="st3 st4">t</tspan><tspan x="84.7" y="0" class="st3 st4">o</tspan><tspan x="90.3" y="0" class="st3 st4"> </tspan><tspan x="93.1" y="0" class="st3 st4">li</tspan><tspan x="99.3" y="0" class="st3 st4">b</tspan><tspan x="105.5" y="0" class="st3 st4">r</tspan><tspan x="110.5" y="0" class="st3 st4">a</tspan><tspan x="116.1" y="0" class="st3 st4">r</tspan><tspan x="121.1" y="0" class="st3 st4">y</tspan><tspan x="126.7" y="0" class="st3 st4"> </tspan><tspan x="129.5" y="0" class="st3 st4">s</tspan><tspan x="134" y="0" class="st3 st4">i</tspan><tspan x="137.1" y="0" class="st3 st4">z</tspan><tspan x="142.1" y="0" class="st3 st4">e</tspan></text>
	</g>
	<g class="st2">
		<text transform="matrix(1 0 0 1 166.1719 358.8564)" class="st5 st4">-</text>
	</g>
	<g class="st2">
		<text transform="matrix(1 0 0 1 184.1929 358.8564)" class="st5 st4">v</text>
	</g>
	<g class="st2">
		<text transform="matrix(1 0 0 1 189.7993 358.8564)"><tspan x="0" y="0" class="st5 st4">oo</tspan><tspan x="11.2" y="0" class="st5 st4">m</tspan><tspan x="19.9" y="0" class="st5 st4"> </tspan><tspan x="22.7" y="0" class="st5 st4">t</tspan><tspan x="25.8" y="0" class="st5 st4">oo</tspan><tspan x="37.1" y="0" class="st5 st4">l</tspan><tspan x="40.2" y="0" class="st5 st4"> </tspan><tspan x="43" y="0" class="st5 st4">(</tspan><tspan x="46.7" y="0" class="st5 st4">L</tspan><tspan x="53.5" y="0" class="st5 st4">a</tspan><tspan x="58.5" y="0" class="st5 st4">w</tspan><tspan x="66.6" y="0" class="st5 st4"> e</tspan><tspan x="74.4" y="0" class="st5 st4">t</tspan><tspan x="77.5" y="0" class="st5 st4"> a</tspan><tspan x="85.4" y="0" class="st5 st4">l</tspan><tspan x="88.5" y="0" class="st5 st4">. </tspan><tspan x="94.1" y="0" class="st5 st4">2014</tspan><tspan x="116.5" y="0" class="st5 st4">)</tspan></text>
	</g>
	<rect x="62.4" y="375.6" class="st1" width="370.8" height="19.4"/>
	<g class="st2">
		<text transform="matrix(1 0 0 1 87.5977 389.1104)"><tspan x="0" y="0" class="st3 st4">R</tspan><tspan x="8.1" y="0" class="st3 st4">e</tspan><tspan x="13.1" y="0" class="st3 st4">m</tspan><tspan x="22.4" y="0" class="st3 st4">ova</tspan><tspan x="39.3" y="0" class="st3 st4">l</tspan><tspan x="42.4" y="0" class="st3 st4"> </tspan><tspan x="45.2" y="0" class="st3 st4">o</tspan><tspan x="50.8" y="0" class="st3 st4">f</tspan><tspan x="54.5" y="0" class="st3 st4"> </tspan><tspan x="57.3" y="0" class="st3 st4">g</tspan><tspan x="62.9" y="0" class="st3 st4">e</tspan><tspan x="67.9" y="0" class="st3 st4">n</tspan><tspan x="74.1" y="0" class="st3 st4">e</tspan><tspan x="79.1" y="0" class="st3 st4">s</tspan><tspan x="83.6" y="0" class="st3 st4"> </tspan><tspan x="86.4" y="0" class="st3 st4">w</tspan><tspan x="94.5" y="0" class="st3 st4">i</tspan><tspan x="97.6" y="0" class="st3 st4">t</tspan><tspan x="101.3" y="0" class="st3 st4">h</tspan><tspan x="107.5" y="0" class="st3 st4"> ze</tspan><tspan x="120.3" y="0" class="st3 st4">r</tspan><tspan x="125.1" y="0" class="st3 st4">o</tspan><tspan x="130.7" y="0" class="st3 st4"> </tspan><tspan x="133.6" y="0" class="st3 st4">t</tspan><tspan x="137.3" y="0" class="st3 st4">o</tspan><tspan x="142.9" y="0" class="st3 st4"> </tspan><tspan x="145.7" y="0" class="st3 st4">v</tspan><tspan x="151.3" y="0" class="st3 st4">er</tspan><tspan x="161.3" y="0" class="st3 st4">y</tspan><tspan x="166.9" y="0" class="st3 st4"> </tspan><tspan x="169.7" y="0" class="st3 st4">l</tspan><tspan x="172.8" y="0" class="st3 st4">o</tspan><tspan x="178.4" y="0" class="st3 st4">w</tspan><tspan x="186.6" y="0" class="st3 st4"> e</tspan><tspan x="194.4" y="0" class="st3 st4">x</tspan><tspan x="200" y="0" class="st3 st4">p</tspan><tspan x="206.2" y="0" class="st3 st4">r</tspan><tspan x="211" y="0" class="st3 st4">e</tspan><tspan x="216" y="0" class="st3 st4">ss</tspan><tspan x="224.8" y="0" class="st3 st4">i</tspan><tspan x="227.9" y="0" class="st3 st4">o</tspan><tspan x="233.5" y="0" class="st3 st4">n</tspan><tspan x="239.8" y="0" class="st3 st4"> </tspan><tspan x="242.6" y="0" class="st3 st4">a</tspan><tspan x="248.2" y="0" class="st3 st4">c</tspan><tspan x="253.2" y="0" class="st3 st4">r</tspan><tspan x="258" y="0" class="st3 st4">o</tspan><tspan x="263.6" y="0" class="st3 st4">ss</tspan><tspan x="272.4" y="0" class="st3 st4"> </tspan><tspan x="275.2" y="0" class="st3 st4">a</tspan><tspan x="280.8" y="0" class="st3 st4">ll</tspan><tspan x="287" y="0" class="st3 st4"> </tspan><tspan x="289.9" y="0" class="st3 st4">t</tspan><tspan x="293.6" y="0" class="st3 st4">i</tspan><tspan x="296.7" y="0" class="st3 st4">ss</tspan><tspan x="305.5" y="0" class="st3 st4">u</tspan><tspan x="311.7" y="0" class="st3 st4">e</tspan><tspan x="316.7" y="0" class="st3 st4">s</tspan></text>
	</g>
	<rect x="140.4" y="406.8" class="st1" width="214.8" height="19.4"/>
	<g class="st2">
		<text transform="matrix(1 0 0 1 153.1836 420.3105)" class="st3 st4">t</text>
	</g>
	<g class="st2">
		<text transform="matrix(1 0 0 1 156.8877 420.3105)" class="st3 st4">-</text>
	</g>
	<g class="st2">
		<text transform="matrix(1 0 0 1 160.5918 420.3105)"><tspan x="0" y="0" class="st3 st4">S</tspan><tspan x="6.2" y="0" class="st3 st4">N</tspan><tspan x="14.3" y="0" class="st3 st4">E</tspan><tspan x="21.8" y="0" class="st3 st4"> </tspan><tspan x="24.7" y="0" class="st3 st4">a</tspan><tspan x="30.3" y="0" class="st3 st4">nd</tspan><tspan x="42.7" y="0" class="st3 st4"> </tspan><tspan x="45.5" y="0" class="st3 st4">D</tspan><tspan x="53.6" y="0" class="st3 st4">B</tspan><tspan x="61.1" y="0" class="st3 st4">S</tspan><tspan x="67.3" y="0" class="st3 st4">CAN</tspan><tspan x="91.7" y="0" class="st3 st4"> </tspan><tspan x="94.5" y="0" class="st3 st4">t</tspan><tspan x="98.2" y="0" class="st3 st4">o</tspan><tspan x="103.8" y="0" class="st3 st4"> </tspan><tspan x="106.6" y="0" class="st3 st4">i</tspan><tspan x="109.7" y="0" class="st3 st4">d</tspan><tspan x="115.9" y="0" class="st3 st4">e</tspan><tspan x="121" y="0" class="st3 st4">n</tspan><tspan x="127.2" y="0" class="st3 st4">t</tspan><tspan x="130.9" y="0" class="st3 st4">i</tspan><tspan x="134" y="0" class="st3 st4">f</tspan><tspan x="137.7" y="0" class="st3 st4">y</tspan><tspan x="143.3" y="0" class="st3 st4"> </tspan><tspan x="146.1" y="0" class="st3 st4">o</tspan><tspan x="151.7" y="0" class="st3 st4">u</tspan><tspan x="157.9" y="0" class="st3 st4">t</tspan><tspan x="161.6" y="0" class="st3 st4">li</tspan><tspan x="167.8" y="0" class="st3 st4">er</tspan><tspan x="177.9" y="0" class="st3 st4">s</tspan></text>
	</g>
	<rect x="42" y="444.1" class="st1" width="169.8" height="33"/>
	<g class="st2">
		<text transform="matrix(1 0 0 1 47.7959 457.6104)"><tspan x="0" y="0" class="st3 st4">D</tspan><tspan x="8.1" y="0" class="st3 st4">i</tspan><tspan x="11.2" y="0" class="st3 st4">ff</tspan><tspan x="18.6" y="0" class="st3 st4">e</tspan><tspan x="23.6" y="0" class="st3 st4">r</tspan><tspan x="28.4" y="0" class="st3 st4">e</tspan><tspan x="33.5" y="0" class="st3 st4">n</tspan><tspan x="39.7" y="0" class="st3 st4">t</tspan><tspan x="43.4" y="0" class="st3 st4">i</tspan><tspan x="46.5" y="0" class="st3 st4">a</tspan><tspan x="52.1" y="0" class="st3 st4">l</tspan><tspan x="55.2" y="0" class="st3 st4"> e</tspan><tspan x="63" y="0" class="st3 st4">x</tspan><tspan x="68.6" y="0" class="st3 st4">p</tspan><tspan x="74.8" y="0" class="st3 st4">r</tspan><tspan x="79.6" y="0" class="st3 st4">e</tspan><tspan x="84.6" y="0" class="st3 st4">ss</tspan><tspan x="93.5" y="0" class="st3 st4">i</tspan><tspan x="96.6" y="0" class="st3 st4">o</tspan><tspan x="102.2" y="0" class="st3 st4">n</tspan></text>
	</g>
	<g class="st2">
		<text transform="matrix(1 0 0 1 47.7959 471.2754)" class="st5 st4">-</text>
	</g>
	<g class="st2">
		<text transform="matrix(1 0 0 1 65.8169 471.2754)" class="st5 st4">l</text>
	</g>
	<g class="st2">
		<text transform="matrix(1 0 0 1 68.9204 471.2754)"><tspan x="0" y="0" class="st5 st4">i</tspan><tspan x="3.1" y="0" class="st5 st4">mm</tspan><tspan x="20.5" y="0" class="st5 st4">a </tspan><tspan x="28.3" y="0" class="st5 st4">(</tspan><tspan x="32.1" y="0" class="st5 st4">Rit</tspan><tspan x="45.8" y="0" class="st5 st4">c</tspan><tspan x="50.8" y="0" class="st5 st4">h</tspan><tspan x="56.4" y="0" class="st5 st4">i</tspan><tspan x="59.5" y="0" class="st5 st4">e e</tspan><tspan x="72.3" y="0" class="st5 st4">t</tspan><tspan x="75.4" y="0" class="st5 st4"> a</tspan><tspan x="83.2" y="0" class="st5 st4">l</tspan><tspan x="86.3" y="0" class="st5 st4">. </tspan><tspan x="92" y="0" class="st5 st4">2015</tspan><tspan x="114.4" y="0" class="st5 st4">)</tspan></text>
	</g>
	<rect x="247.8" y="444.3" class="st1" width="276.8" height="46.5"/>
	<g class="st2">
		<text transform="matrix(1 0 0 1 253.5854 457.8096)"><tspan x="0" y="0" class="st3 st4">W</tspan><tspan x="11.2" y="0" class="st3 st4">G</tspan><tspan x="19.9" y="0" class="st3 st4">NC</tspan><tspan x="36.2" y="0" class="st3 st4">A</tspan><tspan x="43.7" y="0" class="st3 st4"> </tspan><tspan x="46.5" y="0" class="st3 st4">N</tspan><tspan x="54.6" y="0" class="st3 st4">e</tspan><tspan x="59.6" y="0" class="st3 st4">tw</tspan><tspan x="71.4" y="0" class="st3 st4">o</tspan><tspan x="77" y="0" class="st3 st4">r</tspan><tspan x="82" y="0" class="st3 st4">k</tspan><tspan x="88.3" y="0" class="st3 st4"> </tspan><tspan x="91.1" y="0" class="st3 st4">C</tspan><tspan x="99.2" y="0" class="st3 st4">o</tspan><tspan x="104.8" y="0" class="st3 st4">n</tspan><tspan x="111" y="0" class="st3 st4">s</tspan><tspan x="115.4" y="0" class="st3 st4">t</tspan><tspan x="119.1" y="0" class="st3 st4">r</tspan><tspan x="124.1" y="0" class="st3 st4">u</tspan><tspan x="130.3" y="0" class="st3 st4">c</tspan><tspan x="135.4" y="0" class="st3 st4">t</tspan><tspan x="139.1" y="0" class="st3 st4">i</tspan><tspan x="142.2" y="0" class="st3 st4">o</tspan><tspan x="147.8" y="0" class="st3 st4">n</tspan></text>
	</g>
	<g class="st2">
		<text transform="matrix(1 0 0 1 253.5854 471.4756)" class="st5 st4">-</text>
	</g>
	<g class="st2">
		<text transform="matrix(1 0 0 1 271.6064 471.4756)"><tspan x="0" y="0" class="st5 st4">B</tspan><tspan x="7.5" y="0" class="st5 st4">a</tspan><tspan x="12.5" y="0" class="st5 st4">t</tspan><tspan x="15.6" y="0" class="st5 st4">c</tspan><tspan x="20.6" y="0" class="st5 st4">h</tspan><tspan x="26.2" y="0" class="st5 st4"> c</tspan><tspan x="34.1" y="0" class="st5 st4">o</tspan><tspan x="39.7" y="0" class="st5 st4">rr</tspan><tspan x="47.1" y="0" class="st5 st4">ec</tspan><tspan x="57.1" y="0" class="st5 st4">ti</tspan><tspan x="63.3" y="0" class="st5 st4">on</tspan><tspan x="74.5" y="0" class="st5 st4"> </tspan><tspan x="77.3" y="0" class="st5 st4">w</tspan><tspan x="85.5" y="0" class="st5 st4">it</tspan><tspan x="91.7" y="0" class="st5 st4">h</tspan><tspan x="97.3" y="0" class="st5 st4"> </tspan><tspan x="100.1" y="0" class="st5 st4">s</tspan><tspan x="104.5" y="0" class="st5 st4">v</tspan><tspan x="110.1" y="0" class="st5 st4">a </tspan><tspan x="117.9" y="0" class="st5 st4">(</tspan><tspan x="121.6" y="0" class="st5 st4">J</tspan><tspan x="126" y="0" class="st5 st4">ohn</tspan><tspan x="142.9" y="0" class="st5 st4">s</tspan><tspan x="147.3" y="0" class="st5 st4">on</tspan><tspan x="158.5" y="0" class="st5 st4"> e</tspan><tspan x="166.3" y="0" class="st5 st4">t</tspan><tspan x="169.4" y="0" class="st5 st4"> a</tspan><tspan x="177.2" y="0" class="st5 st4">l</tspan><tspan x="180.3" y="0" class="st5 st4">. </tspan><tspan x="186" y="0" class="st5 st4">2007</tspan><tspan x="208.4" y="0" class="st5 st4">)</tspan></text>
	</g>
	<g class="st2">
		<text transform="matrix(1 0 0 1 253.5854 484.8096)" class="st5 st4">-</text>
	</g>
	<g class="st2">
		<text transform="matrix(1 0 0 1 271.6064 484.8096)"><tspan x="0" y="0" class="st5 st4">W</tspan><tspan x="10.6" y="0" class="st5 st4">GN</tspan><tspan x="26.9" y="0" class="st5 st4">C</tspan><tspan x="34.4" y="0" class="st5 st4">A</tspan><tspan x="41.9" y="0" class="st5 st4"> </tspan><tspan x="44.7" y="0" class="st5 st4">R</tspan><tspan x="52.2" y="0" class="st5 st4"> </tspan><tspan x="55" y="0" class="st5 st4">t</tspan><tspan x="58.1" y="0" class="st5 st4">oo</tspan><tspan x="69.3" y="0" class="st5 st4">l</tspan><tspan x="72.4" y="0" class="st5 st4"> </tspan><tspan x="75.2" y="0" class="st5 st4">(</tspan><tspan x="78.9" y="0" class="st5 st4">L</tspan><tspan x="85.8" y="0" class="st5 st4">a</tspan><tspan x="90.8" y="0" class="st5 st4">ng</tspan><tspan x="102" y="0" class="st5 st4">f</tspan><tspan x="105.7" y="0" class="st5 st4">e</tspan><tspan x="110.7" y="0" class="st5 st4">l</tspan><tspan x="113.8" y="0" class="st5 st4">d</tspan><tspan x="119.4" y="0" class="st5 st4">e</tspan><tspan x="124.4" y="0" class="st5 st4">r</tspan><tspan x="128.1" y="0" class="st5 st4"> e</tspan><tspan x="135.9" y="0" class="st5 st4">t</tspan><tspan x="139" y="0" class="st5 st4"> a</tspan><tspan x="146.9" y="0" class="st5 st4">l</tspan><tspan x="150" y="0" class="st5 st4">. </tspan><tspan x="155.6" y="0" class="st5 st4">2008</tspan><tspan x="178" y="0" class="st5 st4">)</tspan></text>
	</g>
	<polygon class="st2" points="248.2,107.1 248.2,111.6 250.2,111.6 247.8,116.4 245.4,111.6 247.5,111.6 247.5,107.1 	"/>
	<polygon class="st2" points="248.2,190.2 248.2,194.8 250.2,194.8 247.8,199.6 245.4,194.8 247.5,194.8 247.5,190.2 	"/>
	<polygon class="st2" points="248.2,247.2 248.2,252.4 250.2,252.4 247.8,257.2 245.4,252.4 247.5,252.4 247.5,247.2 	"/>
	<polygon class="st2" points="248.2,276.1 248.2,281.9 250.2,281.9 247.8,286.7 245.4,281.9 247.5,281.9 247.5,276.1 	"/>
	<polygon class="st2" points="248.2,319.6 248.2,326.8 250.2,326.8 247.8,331.6 245.4,326.8 247.5,326.8 247.5,319.6 	"/>
	<polygon class="st2" points="248.2,364.5 248.2,370.8 250.2,370.8 247.8,375.6 245.4,370.8 247.5,370.8 247.5,364.5 	"/>
	<polygon class="st2" points="247.5,395.3 247.5,402 245.4,402 247.8,406.8 250.2,402 248.2,402 248.2,395.3 	"/>
	<polygon class="st2" points="247.9,426.2 381.5,441.8 381.8,439.7 386.2,442.7 381.2,444.5 381.4,442.4 247.8,426.8 	"/>
	<polygon class="st2" points="247.8,426.2 131.7,441.5 131.4,439.5 127,442.5 132,444.2 131.8,442.2 247.9,426.8 	"/>
	<rect x="524.7" y="134.1" class="st1" width="116.7" height="33"/>
	<g class="st2">
		<text transform="matrix(1 0 0 1 539.1855 147.6294)"><tspan x="0" y="0" class="st5 st4">R</tspan><tspan x="7.5" y="0" class="st5 st4">e</tspan></text>
	</g>
	<g class="st2">
		<text transform="matrix(1 0 0 1 551.6992 147.6294)" class="st5 st4">-</text>
	</g>
	<g class="st2">
		<text transform="matrix(1 0 0 1 555.4043 147.6294)"><tspan x="0" y="0" class="st5 st4">r</tspan><tspan x="3.7" y="0" class="st5 st4">un</tspan><tspan x="14.9" y="0" class="st5 st4"> </tspan><tspan x="17.7" y="0" class="st5 st4">w</tspan><tspan x="25.9" y="0" class="st5 st4">it</tspan><tspan x="32.1" y="0" class="st5 st4">h</tspan><tspan x="37.7" y="0" class="st5 st4"> </tspan><tspan x="40.5" y="0" class="st5 st4">p</tspan><tspan x="46.1" y="0" class="st5 st4">r</tspan><tspan x="49.8" y="0" class="st5 st4">un</tspan><tspan x="61" y="0" class="st5 st4">e</tspan><tspan x="66" y="0" class="st5 st4">d</tspan><tspan x="71.6" y="0" class="st5 st4"> </tspan></text>
	</g>
	<g class="st2">
		<text transform="matrix(1 0 0 1 553.0488 161.2949)"><tspan x="0" y="0" class="st5 st4">t</tspan><tspan x="3.1" y="0" class="st5 st4">r</tspan><tspan x="6.8" y="0" class="st5 st4">a</tspan><tspan x="11.8" y="0" class="st5 st4">n</tspan><tspan x="17.4" y="0" class="st5 st4">s</tspan><tspan x="21.8" y="0" class="st5 st4">c</tspan><tspan x="26.8" y="0" class="st5 st4">r</tspan><tspan x="30.6" y="0" class="st5 st4">i</tspan><tspan x="33.7" y="0" class="st5 st4">p</tspan><tspan x="39.3" y="0" class="st5 st4">t</tspan><tspan x="42.4" y="0" class="st5 st4"> </tspan><tspan x="45.2" y="0" class="st5 st4">f</tspan><tspan x="48.9" y="0" class="st5 st4">il</tspan><tspan x="55.1" y="0" class="st5 st4">e</tspan></text>
	</g>
	<path class="st6" d="M473.3,141.6c26.9-0.2,49.7,4.2,50.7,9.8c1.1,5.6-19.9,10.4-46.8,10.6c-1.3,0-2.6,0-4,0"/>
	<line class="st6" x1="473.2" y1="162" x2="434.3" y2="162"/>
	<polygon class="st2" points="439.1,139.2 434.3,141.6 439.1,144 439.1,141.9 473.2,141.9 473.2,141.3 439.1,141.3 	"/>
</g>
</svg>
