<?xml version="1.0" encoding="UTF-8" standalone="no"?>
<!DOCTYPE svg PUBLIC "-//W3C//DTD SVG 1.1//EN"
 "http://www.w3.org/Graphics/SVG/1.1/DTD/svg11.dtd">
<!-- Generated by graphviz version 2.40.1 (20161225.0304)
 -->
<!-- Title: snakemake_dag Pages: 1 -->
<svg width="948pt" height="908pt"
 viewBox="0.00 0.00 948.28 908.00" xmlns="http://www.w3.org/2000/svg" xmlns:xlink="http://www.w3.org/1999/xlink">
<g id="graph0" class="graph" transform="scale(1 1) rotate(0) translate(4 904)">
<title>snakemake_dag</title>
<polygon fill="#ffffff" stroke="transparent" points="-4,4 -4,-904 944.2773,-904 944.2773,4 -4,4"/>
<!-- 0 -->
<g id="node1" class="node">
<title>0</title>
<path fill="none" stroke="#bed856" stroke-width="2" stroke-dasharray="5,2" d="M827.5,-252C827.5,-252 723.5,-252 723.5,-252 717.5,-252 711.5,-246 711.5,-240 711.5,-240 711.5,-228 711.5,-228 711.5,-222 717.5,-216 723.5,-216 723.5,-216 827.5,-216 827.5,-216 833.5,-216 839.5,-222 839.5,-228 839.5,-228 839.5,-240 839.5,-240 839.5,-246 833.5,-252 827.5,-252"/>
<text text-anchor="middle" x="775.5" y="-231.5" font-family="sans" font-size="10.00" fill="#000000">differential_expression</text>
</g>
<!-- 21 -->
<g id="node22" class="node">
<title>21</title>
<path fill="none" stroke="#70d856" stroke-width="2" stroke-dasharray="5,2" d="M340.5,-108C340.5,-108 266.5,-108 266.5,-108 260.5,-108 254.5,-102 254.5,-96 254.5,-96 254.5,-84 254.5,-84 254.5,-78 260.5,-72 266.5,-72 266.5,-72 340.5,-72 340.5,-72 346.5,-72 352.5,-78 352.5,-84 352.5,-84 352.5,-96 352.5,-96 352.5,-102 346.5,-108 340.5,-108"/>
<text text-anchor="middle" x="303.5" y="-87.5" font-family="sans" font-size="10.00" fill="#000000">make_SQLite_db</text>
</g>
<!-- 0&#45;&gt;21 -->
<g id="edge32" class="edge">
<title>0&#45;&gt;21</title>
<path fill="none" stroke="#c0c0c0" stroke-width="2" d="M765.243,-215.6485C752.3761,-194.5352 728.2248,-160.6439 697.5,-144 640.9771,-113.381 458.2133,-98.7345 362.7713,-93.0246"/>
<polygon fill="#c0c0c0" stroke="#c0c0c0" stroke-width="2" points="362.8837,-89.5253 352.6965,-92.4357 362.4752,-96.5133 362.8837,-89.5253"/>
</g>
<!-- 1 -->
<g id="node2" class="node">
<title>1</title>
<path fill="none" stroke="#d8bc56" stroke-width="2" stroke-dasharray="5,2" d="M732.5,-756C732.5,-756 632.5,-756 632.5,-756 626.5,-756 620.5,-750 620.5,-744 620.5,-744 620.5,-732 620.5,-732 620.5,-726 626.5,-720 632.5,-720 632.5,-720 732.5,-720 732.5,-720 738.5,-720 744.5,-726 744.5,-732 744.5,-732 744.5,-744 744.5,-744 744.5,-750 738.5,-756 732.5,-756"/>
<text text-anchor="middle" x="682.5" y="-741" font-family="sans" font-size="10.00" fill="#000000">run_salmon</text>
<text text-anchor="middle" x="682.5" y="-730" font-family="sans" font-size="10.00" fill="#000000">sampleID: SRS638559</text>
</g>
<!-- 11 -->
<g id="node12" class="node">
<title>11</title>
<path fill="none" stroke="#56c1d8" stroke-width="2" stroke-dasharray="5,2" d="M507,-684C507,-684 424,-684 424,-684 418,-684 412,-678 412,-672 412,-672 412,-660 412,-660 412,-654 418,-648 424,-648 424,-648 507,-648 507,-648 513,-648 519,-654 519,-660 519,-660 519,-672 519,-672 519,-678 513,-684 507,-684"/>
<text text-anchor="middle" x="465.5" y="-663.5" font-family="sans" font-size="10.00" fill="#000000">find_tx_low_usage</text>
</g>
<!-- 1&#45;&gt;11 -->
<g id="edge19" class="edge">
<title>1&#45;&gt;11</title>
<path fill="none" stroke="#c0c0c0" stroke-width="2" d="M628.0218,-719.9243C597.8712,-709.9204 560.2483,-697.4372 528.7965,-687.0016"/>
<polygon fill="#c0c0c0" stroke="#c0c0c0" stroke-width="2" points="529.8422,-683.661 519.2488,-683.8337 527.6377,-690.3048 529.8422,-683.661"/>
</g>
<!-- 2 -->
<g id="node3" class="node">
<title>2</title>
<path fill="none" stroke="#d88d56" stroke-width="2" stroke-dasharray="5,2" d="M257.5,-180C257.5,-180 227.5,-180 227.5,-180 221.5,-180 215.5,-174 215.5,-168 215.5,-168 215.5,-156 215.5,-156 215.5,-150 221.5,-144 227.5,-144 227.5,-144 257.5,-144 257.5,-144 263.5,-144 269.5,-150 269.5,-156 269.5,-156 269.5,-168 269.5,-168 269.5,-174 263.5,-180 257.5,-180"/>
<text text-anchor="middle" x="242.5" y="-159.5" font-family="sans" font-size="10.00" fill="#000000">tSNE</text>
</g>
<!-- 2&#45;&gt;21 -->
<g id="edge37" class="edge">
<title>2&#45;&gt;21</title>
<path fill="none" stroke="#c0c0c0" stroke-width="2" d="M257.8929,-143.8314C264.9904,-135.454 273.548,-125.3531 281.324,-116.1749"/>
<polygon fill="#c0c0c0" stroke="#c0c0c0" stroke-width="2" points="284.1061,-118.3056 287.8999,-108.4133 278.7652,-113.7807 284.1061,-118.3056"/>
</g>
<!-- 3 -->
<g id="node4" class="node">
<title>3</title>
<path fill="none" stroke="#d8bc56" stroke-width="2" stroke-dasharray="5,2" d="M382.5,-756C382.5,-756 276.5,-756 276.5,-756 270.5,-756 264.5,-750 264.5,-744 264.5,-744 264.5,-732 264.5,-732 264.5,-726 270.5,-720 276.5,-720 276.5,-720 382.5,-720 382.5,-720 388.5,-720 394.5,-726 394.5,-732 394.5,-732 394.5,-744 394.5,-744 394.5,-750 388.5,-756 382.5,-756"/>
<text text-anchor="middle" x="329.5" y="-741" font-family="sans" font-size="10.00" fill="#000000">run_salmon</text>
<text text-anchor="middle" x="329.5" y="-730" font-family="sans" font-size="10.00" fill="#000000">sampleID: SRS1305249</text>
</g>
<!-- 3&#45;&gt;11 -->
<g id="edge18" class="edge">
<title>3&#45;&gt;11</title>
<path fill="none" stroke="#c0c0c0" stroke-width="2" d="M363.8185,-719.8314C381.5359,-710.4516 403.3345,-698.9112 422.1984,-688.9244"/>
<polygon fill="#c0c0c0" stroke="#c0c0c0" stroke-width="2" points="423.9922,-691.935 431.1924,-684.1628 420.7169,-685.7485 423.9922,-691.935"/>
</g>
<!-- 4 -->
<g id="node5" class="node">
<title>4</title>
<path fill="none" stroke="#56d88a" stroke-width="2" stroke-dasharray="5,2" d="M881.5,-900C881.5,-900 801.5,-900 801.5,-900 795.5,-900 789.5,-894 789.5,-888 789.5,-888 789.5,-876 789.5,-876 789.5,-870 795.5,-864 801.5,-864 801.5,-864 881.5,-864 881.5,-864 887.5,-864 893.5,-870 893.5,-876 893.5,-876 893.5,-888 893.5,-888 893.5,-894 887.5,-900 881.5,-900"/>
<text text-anchor="middle" x="841.5" y="-885" font-family="sans" font-size="10.00" fill="#000000">download_fastq</text>
<text text-anchor="middle" x="841.5" y="-874" font-family="sans" font-size="10.00" fill="#000000">id: SRR1410783_2</text>
</g>
<!-- 6 -->
<g id="node7" class="node">
<title>6</title>
<path fill="none" stroke="#a7d856" stroke-width="2" stroke-dasharray="5,2" d="M897,-828C897,-828 786,-828 786,-828 780,-828 774,-822 774,-816 774,-816 774,-804 774,-804 774,-798 780,-792 786,-792 786,-792 897,-792 897,-792 903,-792 909,-798 909,-804 909,-804 909,-816 909,-816 909,-822 903,-828 897,-828"/>
<text text-anchor="middle" x="841.5" y="-813" font-family="sans" font-size="10.00" fill="#000000">aggregate_fastqs</text>
<text text-anchor="middle" x="841.5" y="-802" font-family="sans" font-size="10.00" fill="#000000">sampleID: SRS638559_2</text>
</g>
<!-- 4&#45;&gt;6 -->
<g id="edge11" class="edge">
<title>4&#45;&gt;6</title>
<path fill="none" stroke="#c0c0c0" stroke-width="2" d="M841.5,-863.8314C841.5,-856.131 841.5,-846.9743 841.5,-838.4166"/>
<polygon fill="#c0c0c0" stroke="#c0c0c0" stroke-width="2" points="845.0001,-838.4132 841.5,-828.4133 838.0001,-838.4133 845.0001,-838.4132"/>
</g>
<!-- 5 -->
<g id="node6" class="node">
<title>5</title>
<path fill="none" stroke="#a7d856" stroke-width="2" stroke-dasharray="5,2" d="M382,-828C382,-828 265,-828 265,-828 259,-828 253,-822 253,-816 253,-816 253,-804 253,-804 253,-798 259,-792 265,-792 265,-792 382,-792 382,-792 388,-792 394,-798 394,-804 394,-804 394,-816 394,-816 394,-822 388,-828 382,-828"/>
<text text-anchor="middle" x="323.5" y="-813" font-family="sans" font-size="10.00" fill="#000000">aggregate_fastqs</text>
<text text-anchor="middle" x="323.5" y="-802" font-family="sans" font-size="10.00" fill="#000000">sampleID: SRS1305249_2</text>
</g>
<!-- 5&#45;&gt;3 -->
<g id="edge7" class="edge">
<title>5&#45;&gt;3</title>
<path fill="none" stroke="#c0c0c0" stroke-width="2" d="M325.0141,-791.8314C325.6558,-784.131 326.4188,-774.9743 327.1319,-766.4166"/>
<polygon fill="#c0c0c0" stroke="#c0c0c0" stroke-width="2" points="330.6229,-766.6694 327.9656,-756.4133 323.6471,-766.088 330.6229,-766.6694"/>
</g>
<!-- 29 -->
<g id="node30" class="node">
<title>29</title>
<path fill="none" stroke="#56d873" stroke-width="2" stroke-dasharray="5,2" d="M382.5,-468C382.5,-468 276.5,-468 276.5,-468 270.5,-468 264.5,-462 264.5,-456 264.5,-456 264.5,-444 264.5,-444 264.5,-438 270.5,-432 276.5,-432 276.5,-432 382.5,-432 382.5,-432 388.5,-432 394.5,-438 394.5,-444 394.5,-444 394.5,-456 394.5,-456 394.5,-462 388.5,-468 382.5,-468"/>
<text text-anchor="middle" x="329.5" y="-453" font-family="sans" font-size="10.00" fill="#000000">re_run_Salmon</text>
<text text-anchor="middle" x="329.5" y="-442" font-family="sans" font-size="10.00" fill="#000000">sampleID: SRS1305249</text>
</g>
<!-- 5&#45;&gt;29 -->
<g id="edge54" class="edge">
<title>5&#45;&gt;29</title>
<path fill="none" stroke="#c0c0c0" stroke-width="2" d="M291.938,-791.8379C278.7589,-782.7075 264.4599,-770.4883 255.5,-756 233.9975,-721.23 236.5,-706.8816 236.5,-666 236.5,-666 236.5,-666 236.5,-594 236.5,-546.1228 273.2266,-501.5525 300.5204,-475.04"/>
<polygon fill="#c0c0c0" stroke="#c0c0c0" stroke-width="2" points="303.0556,-477.4601 307.9302,-468.0532 298.2533,-472.3671 303.0556,-477.4601"/>
</g>
<!-- 6&#45;&gt;1 -->
<g id="edge3" class="edge">
<title>6&#45;&gt;1</title>
<path fill="none" stroke="#c0c0c0" stroke-width="2" d="M801.3776,-791.8314C780.2068,-782.2446 754.0517,-770.4008 731.6697,-760.2655"/>
<polygon fill="#c0c0c0" stroke="#c0c0c0" stroke-width="2" points="732.8872,-756.9748 722.3339,-756.038 729.9997,-763.3515 732.8872,-756.9748"/>
</g>
<!-- 28 -->
<g id="node29" class="node">
<title>28</title>
<path fill="none" stroke="#56d873" stroke-width="2" stroke-dasharray="5,2" d="M608.5,-468C608.5,-468 508.5,-468 508.5,-468 502.5,-468 496.5,-462 496.5,-456 496.5,-456 496.5,-444 496.5,-444 496.5,-438 502.5,-432 508.5,-432 508.5,-432 608.5,-432 608.5,-432 614.5,-432 620.5,-438 620.5,-444 620.5,-444 620.5,-456 620.5,-456 620.5,-462 614.5,-468 608.5,-468"/>
<text text-anchor="middle" x="558.5" y="-453" font-family="sans" font-size="10.00" fill="#000000">re_run_Salmon</text>
<text text-anchor="middle" x="558.5" y="-442" font-family="sans" font-size="10.00" fill="#000000">sampleID: SRS638559</text>
</g>
<!-- 6&#45;&gt;28 -->
<g id="edge52" class="edge">
<title>6&#45;&gt;28</title>
<path fill="none" stroke="#c0c0c0" stroke-width="2" d="M838.1848,-791.8863C833.4983,-764.6615 825.5,-711.5285 825.5,-666 825.5,-666 825.5,-666 825.5,-594 825.5,-505.2359 709.7702,-470.9342 630.6956,-457.8568"/>
<polygon fill="#c0c0c0" stroke="#c0c0c0" stroke-width="2" points="631.1854,-454.3909 620.7627,-456.2928 630.0965,-461.3057 631.1854,-454.3909"/>
</g>
<!-- 7 -->
<g id="node8" class="node">
<title>7</title>
<path fill="none" stroke="#d6d856" stroke-width="2" stroke-dasharray="5,2" d="M194.5,-108C194.5,-108 108.5,-108 108.5,-108 102.5,-108 96.5,-102 96.5,-96 96.5,-96 96.5,-84 96.5,-84 96.5,-78 102.5,-72 108.5,-72 108.5,-72 194.5,-72 194.5,-72 200.5,-72 206.5,-78 206.5,-84 206.5,-84 206.5,-96 206.5,-96 206.5,-102 200.5,-108 194.5,-108"/>
<text text-anchor="middle" x="151.5" y="-87.5" font-family="sans" font-size="10.00" fill="#000000">make_word_clouds</text>
</g>
<!-- 10 -->
<g id="node11" class="node">
<title>10</title>
<path fill="none" stroke="#59d856" stroke-width="2" stroke-dasharray="5,2" d="M227.5,-36C227.5,-36 197.5,-36 197.5,-36 191.5,-36 185.5,-30 185.5,-24 185.5,-24 185.5,-12 185.5,-12 185.5,-6 191.5,0 197.5,0 197.5,0 227.5,0 227.5,0 233.5,0 239.5,-6 239.5,-12 239.5,-12 239.5,-24 239.5,-24 239.5,-30 233.5,-36 227.5,-36"/>
<text text-anchor="middle" x="212.5" y="-15.5" font-family="sans" font-size="10.00" fill="#000000">all</text>
</g>
<!-- 7&#45;&gt;10 -->
<g id="edge16" class="edge">
<title>7&#45;&gt;10</title>
<path fill="none" stroke="#c0c0c0" stroke-width="2" d="M166.8929,-71.8314C173.9904,-63.454 182.548,-53.3531 190.324,-44.1749"/>
<polygon fill="#c0c0c0" stroke="#c0c0c0" stroke-width="2" points="193.1061,-46.3056 196.8999,-36.4133 187.7652,-41.7807 193.1061,-46.3056"/>
</g>
<!-- 8 -->
<g id="node9" class="node">
<title>8</title>
<path fill="none" stroke="#88d856" stroke-width="2" stroke-dasharray="5,2" d="M549,-900C549,-900 466,-900 466,-900 460,-900 454,-894 454,-888 454,-888 454,-876 454,-876 454,-870 460,-864 466,-864 466,-864 549,-864 549,-864 555,-864 561,-870 561,-876 561,-876 561,-888 561,-888 561,-894 555,-900 549,-900"/>
<text text-anchor="middle" x="507.5" y="-879.5" font-family="sans" font-size="10.00" fill="#000000">downloadGencode</text>
</g>
<!-- 9 -->
<g id="node10" class="node">
<title>9</title>
<path fill="none" stroke="#d86e56" stroke-width="2" stroke-dasharray="5,2" d="M565.5,-612C565.5,-612 463.5,-612 463.5,-612 457.5,-612 451.5,-606 451.5,-600 451.5,-600 451.5,-588 451.5,-588 451.5,-582 457.5,-576 463.5,-576 463.5,-576 565.5,-576 565.5,-576 571.5,-576 577.5,-582 577.5,-588 577.5,-588 577.5,-600 577.5,-600 577.5,-606 571.5,-612 565.5,-612"/>
<text text-anchor="middle" x="514.5" y="-591.5" font-family="sans" font-size="10.00" fill="#000000">remove_tx_low_usage</text>
</g>
<!-- 8&#45;&gt;9 -->
<g id="edge14" class="edge">
<title>8&#45;&gt;9</title>
<path fill="none" stroke="#c0c0c0" stroke-width="2" d="M540.2625,-863.9454C553.1198,-854.9749 566.4627,-842.8504 573.5,-828 606.986,-757.3365 560.2839,-665.3294 532.5197,-620.6612"/>
<polygon fill="#c0c0c0" stroke="#c0c0c0" stroke-width="2" points="535.4076,-618.6801 527.0835,-612.1257 529.5034,-622.4405 535.4076,-618.6801"/>
</g>
<!-- 8&#45;&gt;11 -->
<g id="edge17" class="edge">
<title>8&#45;&gt;11</title>
<path fill="none" stroke="#c0c0c0" stroke-width="2" d="M474.7375,-863.9454C461.8802,-854.9749 448.5373,-842.8504 441.5,-828 420.8113,-784.3418 438.1609,-727.2675 452.1673,-693.8219"/>
<polygon fill="#c0c0c0" stroke="#c0c0c0" stroke-width="2" points="455.5571,-694.8061 456.361,-684.2418 449.1446,-691.999 455.5571,-694.8061"/>
</g>
<!-- 13 -->
<g id="node14" class="node">
<title>13</title>
<path fill="none" stroke="#d85656" stroke-width="2" stroke-dasharray="5,2" d="M364,-324C364,-324 179,-324 179,-324 173,-324 167,-318 167,-312 167,-312 167,-300 167,-300 167,-294 173,-288 179,-288 179,-288 364,-288 364,-288 370,-288 376,-294 376,-300 376,-300 376,-312 376,-312 376,-318 370,-324 364,-324"/>
<text text-anchor="middle" x="271.5" y="-309" font-family="sans" font-size="10.00" fill="#000000">gene_quantification_and_normalization</text>
<text text-anchor="middle" x="271.5" y="-298" font-family="sans" font-size="10.00" fill="#000000">level: gene</text>
</g>
<!-- 8&#45;&gt;13 -->
<g id="edge22" class="edge">
<title>8&#45;&gt;13</title>
<path fill="none" stroke="#c0c0c0" stroke-width="2" d="M453.9606,-873.8574C432.3977,-870.6583 407.2833,-867.0336 384.5,-864 317.9424,-855.138 134.0353,-873.3288 84.5,-828 54.3401,-800.4013 65.5,-778.8816 65.5,-738 65.5,-738 65.5,-738 65.5,-450 65.5,-386.035 133.0448,-348.1088 190.7802,-327.3743"/>
<polygon fill="#c0c0c0" stroke="#c0c0c0" stroke-width="2" points="192.0149,-330.6507 200.318,-324.0698 189.7232,-324.0364 192.0149,-330.6507"/>
</g>
<!-- 15 -->
<g id="node16" class="node">
<title>15</title>
<path fill="none" stroke="#5673d8" stroke-width="2" stroke-dasharray="5,2" d="M552.5,-828C552.5,-828 462.5,-828 462.5,-828 456.5,-828 450.5,-822 450.5,-816 450.5,-816 450.5,-804 450.5,-804 450.5,-798 456.5,-792 462.5,-792 462.5,-792 552.5,-792 552.5,-792 558.5,-792 564.5,-798 564.5,-804 564.5,-804 564.5,-816 564.5,-816 564.5,-822 558.5,-828 552.5,-828"/>
<text text-anchor="middle" x="507.5" y="-807.5" font-family="sans" font-size="10.00" fill="#000000">build_salmon_index</text>
</g>
<!-- 8&#45;&gt;15 -->
<g id="edge26" class="edge">
<title>8&#45;&gt;15</title>
<path fill="none" stroke="#c0c0c0" stroke-width="2" d="M507.5,-863.8314C507.5,-856.131 507.5,-846.9743 507.5,-838.4166"/>
<polygon fill="#c0c0c0" stroke="#c0c0c0" stroke-width="2" points="511.0001,-838.4132 507.5,-828.4133 504.0001,-838.4133 511.0001,-838.4132"/>
</g>
<!-- 22 -->
<g id="node23" class="node">
<title>22</title>
<path fill="none" stroke="#d85656" stroke-width="2" stroke-dasharray="5,2" d="M670,-324C670,-324 485,-324 485,-324 479,-324 473,-318 473,-312 473,-312 473,-300 473,-300 473,-294 479,-288 485,-288 485,-288 670,-288 670,-288 676,-288 682,-294 682,-300 682,-300 682,-312 682,-312 682,-318 676,-324 670,-324"/>
<text text-anchor="middle" x="577.5" y="-309" font-family="sans" font-size="10.00" fill="#000000">gene_quantification_and_normalization</text>
<text text-anchor="middle" x="577.5" y="-298" font-family="sans" font-size="10.00" fill="#000000">level: transcript</text>
</g>
<!-- 8&#45;&gt;22 -->
<g id="edge41" class="edge">
<title>8&#45;&gt;22</title>
<path fill="none" stroke="#c0c0c0" stroke-width="2" d="M561.2198,-873.6397C581.9185,-870.4978 605.7932,-866.9702 627.5,-864 692.0581,-855.1664 870.5099,-872.0763 918.5,-828 948.6094,-800.3462 937.5,-778.8816 937.5,-738 937.5,-738 937.5,-738 937.5,-450 937.5,-394.1884 786.4526,-350.2614 680.0387,-326.2398"/>
<polygon fill="#c0c0c0" stroke="#c0c0c0" stroke-width="2" points="680.7309,-322.8083 670.2089,-324.0485 679.2078,-329.6406 680.7309,-322.8083"/>
</g>
<!-- 26 -->
<g id="node27" class="node">
<title>26</title>
<path fill="none" stroke="#56d8a2" stroke-width="2" stroke-dasharray="5,2" d="M564.5,-540C564.5,-540 464.5,-540 464.5,-540 458.5,-540 452.5,-534 452.5,-528 452.5,-528 452.5,-516 452.5,-516 452.5,-510 458.5,-504 464.5,-504 464.5,-504 564.5,-504 564.5,-504 570.5,-504 576.5,-510 576.5,-516 576.5,-516 576.5,-528 576.5,-528 576.5,-534 570.5,-540 564.5,-540"/>
<text text-anchor="middle" x="514.5" y="-519.5" font-family="sans" font-size="10.00" fill="#000000">rebuild_salmon_index</text>
</g>
<!-- 9&#45;&gt;26 -->
<g id="edge48" class="edge">
<title>9&#45;&gt;26</title>
<path fill="none" stroke="#c0c0c0" stroke-width="2" d="M514.5,-575.8314C514.5,-568.131 514.5,-558.9743 514.5,-550.4166"/>
<polygon fill="#c0c0c0" stroke="#c0c0c0" stroke-width="2" points="518.0001,-550.4132 514.5,-540.4133 511.0001,-550.4133 518.0001,-550.4132"/>
</g>
<!-- 11&#45;&gt;9 -->
<g id="edge13" class="edge">
<title>11&#45;&gt;9</title>
<path fill="none" stroke="#c0c0c0" stroke-width="2" d="M477.8648,-647.8314C483.4509,-639.6232 490.163,-629.7606 496.3072,-620.7323"/>
<polygon fill="#c0c0c0" stroke="#c0c0c0" stroke-width="2" points="499.236,-622.6496 501.9687,-612.4133 493.449,-618.7112 499.236,-622.6496"/>
</g>
<!-- 12 -->
<g id="node13" class="node">
<title>12</title>
<path fill="none" stroke="#56a2d8" stroke-width="2" stroke-dasharray="5,2" d="M495,-252C495,-252 420,-252 420,-252 414,-252 408,-246 408,-240 408,-240 408,-228 408,-228 408,-222 414,-216 420,-216 420,-216 495,-216 495,-216 501,-216 507,-222 507,-228 507,-228 507,-240 507,-240 507,-246 501,-252 495,-252"/>
<text text-anchor="middle" x="457.5" y="-231.5" font-family="sans" font-size="10.00" fill="#000000">make_meta_info</text>
</g>
<!-- 12&#45;&gt;2 -->
<g id="edge5" class="edge">
<title>12&#45;&gt;2</title>
<path fill="none" stroke="#c0c0c0" stroke-width="2" d="M407.6757,-221.1614C371.5845,-211.3145 321.8919,-196.6211 279.5,-180 279.4002,-179.9609 279.3004,-179.9216 279.2004,-179.8822"/>
<polygon fill="#c0c0c0" stroke="#c0c0c0" stroke-width="2" points="280.3349,-176.5611 269.7633,-175.8601 277.5904,-183.0007 280.3349,-176.5611"/>
</g>
<!-- 18 -->
<g id="node19" class="node">
<title>18</title>
<path fill="none" stroke="#56d8d8" stroke-width="2" stroke-dasharray="5,2" d="M643,-180C643,-180 512,-180 512,-180 506,-180 500,-174 500,-168 500,-168 500,-156 500,-156 500,-150 506,-144 512,-144 512,-144 643,-144 643,-144 649,-144 655,-150 655,-156 655,-156 655,-168 655,-168 655,-174 649,-180 643,-180"/>
<text text-anchor="middle" x="577.5" y="-159.5" font-family="sans" font-size="10.00" fill="#000000">calculate_mean_rank_decile</text>
</g>
<!-- 12&#45;&gt;18 -->
<g id="edge28" class="edge">
<title>12&#45;&gt;18</title>
<path fill="none" stroke="#c0c0c0" stroke-width="2" d="M487.7811,-215.8314C503.1298,-206.6221 521.9498,-195.3301 538.3823,-185.4706"/>
<polygon fill="#c0c0c0" stroke="#c0c0c0" stroke-width="2" points="540.4544,-188.3091 547.2286,-180.1628 536.8529,-182.3066 540.4544,-188.3091"/>
</g>
<!-- 19 -->
<g id="node20" class="node">
<title>19</title>
<path fill="none" stroke="#56d8d8" stroke-width="2" stroke-dasharray="5,2" d="M431,-180C431,-180 300,-180 300,-180 294,-180 288,-174 288,-168 288,-168 288,-156 288,-156 288,-150 294,-144 300,-144 300,-144 431,-144 431,-144 437,-144 443,-150 443,-156 443,-156 443,-168 443,-168 443,-174 437,-180 431,-180"/>
<text text-anchor="middle" x="365.5" y="-159.5" font-family="sans" font-size="10.00" fill="#000000">calculate_mean_rank_decile</text>
</g>
<!-- 12&#45;&gt;19 -->
<g id="edge30" class="edge">
<title>12&#45;&gt;19</title>
<path fill="none" stroke="#c0c0c0" stroke-width="2" d="M434.2845,-215.8314C422.953,-206.9632 409.1536,-196.1637 396.8973,-186.5718"/>
<polygon fill="#c0c0c0" stroke="#c0c0c0" stroke-width="2" points="398.7402,-183.5697 388.7081,-180.1628 394.426,-189.0822 398.7402,-183.5697"/>
</g>
<!-- 12&#45;&gt;21 -->
<g id="edge38" class="edge">
<title>12&#45;&gt;21</title>
<path fill="none" stroke="#c0c0c0" stroke-width="2" d="M461.8937,-215.8233C465.5296,-196.1197 467.9057,-164.7217 452.5,-144 441.1979,-128.7979 398.9473,-114.3269 362.3106,-104.1985"/>
<polygon fill="#c0c0c0" stroke="#c0c0c0" stroke-width="2" points="363.2161,-100.8177 352.6495,-101.5898 361.3913,-107.5757 363.2161,-100.8177"/>
</g>
<!-- 13&#45;&gt;2 -->
<g id="edge6" class="edge">
<title>13&#45;&gt;2</title>
<path fill="none" stroke="#c0c0c0" stroke-width="2" d="M267.8271,-287.7623C262.859,-263.0928 253.9509,-218.8598 248.1335,-189.9731"/>
<polygon fill="#c0c0c0" stroke="#c0c0c0" stroke-width="2" points="251.5485,-189.2018 246.143,-180.0896 244.6863,-190.5838 251.5485,-189.2018"/>
</g>
<!-- 13&#45;&gt;12 -->
<g id="edge20" class="edge">
<title>13&#45;&gt;12</title>
<path fill="none" stroke="#c0c0c0" stroke-width="2" d="M318.4357,-287.8314C343.6437,-278.0734 374.8926,-265.977 401.3791,-255.7242"/>
<polygon fill="#c0c0c0" stroke="#c0c0c0" stroke-width="2" points="402.8397,-258.912 410.9019,-252.038 400.3127,-252.384 402.8397,-258.912"/>
</g>
<!-- 13&#45;&gt;19 -->
<g id="edge31" class="edge">
<title>13&#45;&gt;19</title>
<path fill="none" stroke="#c0c0c0" stroke-width="2" d="M283.4052,-287.7623C299.7914,-262.66 329.4003,-217.3017 348.2229,-188.4671"/>
<polygon fill="#c0c0c0" stroke="#c0c0c0" stroke-width="2" points="351.1561,-190.3766 353.6915,-180.0896 345.2944,-186.5502 351.1561,-190.3766"/>
</g>
<!-- 13&#45;&gt;21 -->
<g id="edge39" class="edge">
<title>13&#45;&gt;21</title>
<path fill="none" stroke="#c0c0c0" stroke-width="2" d="M253.6206,-287.685C225.7026,-256.7762 177.7828,-192.8542 206.5,-144 215.3179,-128.9989 229.9802,-117.8625 245.268,-109.7305"/>
<polygon fill="#c0c0c0" stroke="#c0c0c0" stroke-width="2" points="246.8761,-112.84 254.3021,-105.2832 243.7844,-106.5598 246.8761,-112.84"/>
</g>
<!-- 23 -->
<g id="node24" class="node">
<title>23</title>
<path fill="none" stroke="#bed856" stroke-width="2" stroke-dasharray="5,2" d="M147.5,-252C147.5,-252 43.5,-252 43.5,-252 37.5,-252 31.5,-246 31.5,-240 31.5,-240 31.5,-228 31.5,-228 31.5,-222 37.5,-216 43.5,-216 43.5,-216 147.5,-216 147.5,-216 153.5,-216 159.5,-222 159.5,-228 159.5,-228 159.5,-240 159.5,-240 159.5,-246 153.5,-252 147.5,-252"/>
<text text-anchor="middle" x="95.5" y="-231.5" font-family="sans" font-size="10.00" fill="#000000">differential_expression</text>
</g>
<!-- 13&#45;&gt;23 -->
<g id="edge45" class="edge">
<title>13&#45;&gt;23</title>
<path fill="none" stroke="#c0c0c0" stroke-width="2" d="M227.0878,-287.8314C203.3396,-278.1162 173.9254,-266.0831 148.9336,-255.8592"/>
<polygon fill="#c0c0c0" stroke="#c0c0c0" stroke-width="2" points="150.1736,-252.585 139.5929,-252.038 147.5231,-259.0638 150.1736,-252.585"/>
</g>
<!-- 14 -->
<g id="node15" class="node">
<title>14</title>
<path fill="none" stroke="#56d88a" stroke-width="2" stroke-dasharray="5,2" d="M363.5,-900C363.5,-900 283.5,-900 283.5,-900 277.5,-900 271.5,-894 271.5,-888 271.5,-888 271.5,-876 271.5,-876 271.5,-870 277.5,-864 283.5,-864 283.5,-864 363.5,-864 363.5,-864 369.5,-864 375.5,-870 375.5,-876 375.5,-876 375.5,-888 375.5,-888 375.5,-894 369.5,-900 363.5,-900"/>
<text text-anchor="middle" x="323.5" y="-885" font-family="sans" font-size="10.00" fill="#000000">download_fastq</text>
<text text-anchor="middle" x="323.5" y="-874" font-family="sans" font-size="10.00" fill="#000000">id: SRR3170191_2</text>
</g>
<!-- 14&#45;&gt;5 -->
<g id="edge10" class="edge">
<title>14&#45;&gt;5</title>
<path fill="none" stroke="#c0c0c0" stroke-width="2" d="M323.5,-863.8314C323.5,-856.131 323.5,-846.9743 323.5,-838.4166"/>
<polygon fill="#c0c0c0" stroke="#c0c0c0" stroke-width="2" points="327.0001,-838.4132 323.5,-828.4133 320.0001,-838.4133 327.0001,-838.4132"/>
</g>
<!-- 15&#45;&gt;1 -->
<g id="edge4" class="edge">
<title>15&#45;&gt;1</title>
<path fill="none" stroke="#c0c0c0" stroke-width="2" d="M551.6599,-791.8314C575.2732,-782.1162 604.5202,-770.0831 629.37,-759.8592"/>
<polygon fill="#c0c0c0" stroke="#c0c0c0" stroke-width="2" points="630.7415,-763.0797 638.6577,-756.038 628.0781,-756.6061 630.7415,-763.0797"/>
</g>
<!-- 15&#45;&gt;3 -->
<g id="edge9" class="edge">
<title>15&#45;&gt;3</title>
<path fill="none" stroke="#c0c0c0" stroke-width="2" d="M462.5831,-791.8314C438.565,-782.1162 408.8166,-770.0831 383.5408,-759.8592"/>
<polygon fill="#c0c0c0" stroke="#c0c0c0" stroke-width="2" points="384.6767,-756.5432 374.0939,-756.038 382.0518,-763.0325 384.6767,-756.5432"/>
</g>
<!-- 16 -->
<g id="node17" class="node">
<title>16</title>
<path fill="none" stroke="#56d88a" stroke-width="2" stroke-dasharray="5,2" d="M728.5,-900C728.5,-900 648.5,-900 648.5,-900 642.5,-900 636.5,-894 636.5,-888 636.5,-888 636.5,-876 636.5,-876 636.5,-870 642.5,-864 648.5,-864 648.5,-864 728.5,-864 728.5,-864 734.5,-864 740.5,-870 740.5,-876 740.5,-876 740.5,-888 740.5,-888 740.5,-894 734.5,-900 728.5,-900"/>
<text text-anchor="middle" x="688.5" y="-885" font-family="sans" font-size="10.00" fill="#000000">download_fastq</text>
<text text-anchor="middle" x="688.5" y="-874" font-family="sans" font-size="10.00" fill="#000000">id: SRR1410783_1</text>
</g>
<!-- 17 -->
<g id="node18" class="node">
<title>17</title>
<path fill="none" stroke="#a7d856" stroke-width="2" stroke-dasharray="5,2" d="M744,-828C744,-828 633,-828 633,-828 627,-828 621,-822 621,-816 621,-816 621,-804 621,-804 621,-798 627,-792 633,-792 633,-792 744,-792 744,-792 750,-792 756,-798 756,-804 756,-804 756,-816 756,-816 756,-822 750,-828 744,-828"/>
<text text-anchor="middle" x="688.5" y="-813" font-family="sans" font-size="10.00" fill="#000000">aggregate_fastqs</text>
<text text-anchor="middle" x="688.5" y="-802" font-family="sans" font-size="10.00" fill="#000000">sampleID: SRS638559_1</text>
</g>
<!-- 16&#45;&gt;17 -->
<g id="edge27" class="edge">
<title>16&#45;&gt;17</title>
<path fill="none" stroke="#c0c0c0" stroke-width="2" d="M688.5,-863.8314C688.5,-856.131 688.5,-846.9743 688.5,-838.4166"/>
<polygon fill="#c0c0c0" stroke="#c0c0c0" stroke-width="2" points="692.0001,-838.4132 688.5,-828.4133 685.0001,-838.4133 692.0001,-838.4132"/>
</g>
<!-- 17&#45;&gt;1 -->
<g id="edge2" class="edge">
<title>17&#45;&gt;1</title>
<path fill="none" stroke="#c0c0c0" stroke-width="2" d="M686.9859,-791.8314C686.3442,-784.131 685.5812,-774.9743 684.8681,-766.4166"/>
<polygon fill="#c0c0c0" stroke="#c0c0c0" stroke-width="2" points="688.3529,-766.088 684.0344,-756.4133 681.3771,-766.6694 688.3529,-766.088"/>
</g>
<!-- 17&#45;&gt;28 -->
<g id="edge51" class="edge">
<title>17&#45;&gt;28</title>
<path fill="none" stroke="#c0c0c0" stroke-width="2" d="M718.3365,-791.8066C731.0262,-782.5955 744.8608,-770.3208 753.5,-756 774.6173,-720.9948 772.5,-706.8816 772.5,-666 772.5,-666 772.5,-666 772.5,-594 772.5,-523.9699 692.6422,-485.7629 630.4927,-466.6321"/>
<polygon fill="#c0c0c0" stroke="#c0c0c0" stroke-width="2" points="631.2676,-463.2113 620.6851,-463.7236 629.2773,-469.9224 631.2676,-463.2113"/>
</g>
<!-- 18&#45;&gt;21 -->
<g id="edge34" class="edge">
<title>18&#45;&gt;21</title>
<path fill="none" stroke="#c0c0c0" stroke-width="2" d="M508.7119,-143.9243C463.7092,-132.0988 405.5225,-116.8088 362.6074,-105.5319"/>
<polygon fill="#c0c0c0" stroke="#c0c0c0" stroke-width="2" points="363.4314,-102.1297 352.8702,-102.9732 361.6524,-108.8998 363.4314,-102.1297"/>
</g>
<!-- 19&#45;&gt;21 -->
<g id="edge36" class="edge">
<title>19&#45;&gt;21</title>
<path fill="none" stroke="#c0c0c0" stroke-width="2" d="M349.8548,-143.8314C342.6409,-135.454 333.943,-125.3531 326.0395,-116.1749"/>
<polygon fill="#c0c0c0" stroke="#c0c0c0" stroke-width="2" points="328.5333,-113.7071 319.3559,-108.4133 323.2289,-118.2748 328.5333,-113.7071"/>
</g>
<!-- 20 -->
<g id="node21" class="node">
<title>20</title>
<path fill="none" stroke="#56d88a" stroke-width="2" stroke-dasharray="5,2" d="M204.5,-900C204.5,-900 124.5,-900 124.5,-900 118.5,-900 112.5,-894 112.5,-888 112.5,-888 112.5,-876 112.5,-876 112.5,-870 118.5,-864 124.5,-864 124.5,-864 204.5,-864 204.5,-864 210.5,-864 216.5,-870 216.5,-876 216.5,-876 216.5,-888 216.5,-888 216.5,-894 210.5,-900 204.5,-900"/>
<text text-anchor="middle" x="164.5" y="-885" font-family="sans" font-size="10.00" fill="#000000">download_fastq</text>
<text text-anchor="middle" x="164.5" y="-874" font-family="sans" font-size="10.00" fill="#000000">id: SRR3170191_1</text>
</g>
<!-- 24 -->
<g id="node25" class="node">
<title>24</title>
<path fill="none" stroke="#a7d856" stroke-width="2" stroke-dasharray="5,2" d="M223,-828C223,-828 106,-828 106,-828 100,-828 94,-822 94,-816 94,-816 94,-804 94,-804 94,-798 100,-792 106,-792 106,-792 223,-792 223,-792 229,-792 235,-798 235,-804 235,-804 235,-816 235,-816 235,-822 229,-828 223,-828"/>
<text text-anchor="middle" x="164.5" y="-813" font-family="sans" font-size="10.00" fill="#000000">aggregate_fastqs</text>
<text text-anchor="middle" x="164.5" y="-802" font-family="sans" font-size="10.00" fill="#000000">sampleID: SRS1305249_1</text>
</g>
<!-- 20&#45;&gt;24 -->
<g id="edge46" class="edge">
<title>20&#45;&gt;24</title>
<path fill="none" stroke="#c0c0c0" stroke-width="2" d="M164.5,-863.8314C164.5,-856.131 164.5,-846.9743 164.5,-838.4166"/>
<polygon fill="#c0c0c0" stroke="#c0c0c0" stroke-width="2" points="168.0001,-838.4132 164.5,-828.4133 161.0001,-838.4133 168.0001,-838.4132"/>
</g>
<!-- 21&#45;&gt;10 -->
<g id="edge15" class="edge">
<title>21&#45;&gt;10</title>
<path fill="none" stroke="#c0c0c0" stroke-width="2" d="M280.5369,-71.8314C269.3285,-62.9632 255.6791,-52.1637 243.5561,-42.5718"/>
<polygon fill="#c0c0c0" stroke="#c0c0c0" stroke-width="2" points="245.4697,-39.6229 235.4558,-36.1628 241.1263,-45.1125 245.4697,-39.6229"/>
</g>
<!-- 22&#45;&gt;0 -->
<g id="edge1" class="edge">
<title>22&#45;&gt;0</title>
<path fill="none" stroke="#c0c0c0" stroke-width="2" d="M627.2082,-287.9243C654.2759,-278.0815 687.9439,-265.8386 716.3549,-255.5073"/>
<polygon fill="#c0c0c0" stroke="#c0c0c0" stroke-width="2" points="717.5695,-258.7899 725.7714,-252.0831 715.1773,-252.2114 717.5695,-258.7899"/>
</g>
<!-- 22&#45;&gt;12 -->
<g id="edge21" class="edge">
<title>22&#45;&gt;12</title>
<path fill="none" stroke="#c0c0c0" stroke-width="2" d="M547.2189,-287.8314C531.8702,-278.6221 513.0502,-267.3301 496.6177,-257.4706"/>
<polygon fill="#c0c0c0" stroke="#c0c0c0" stroke-width="2" points="498.1471,-254.3066 487.7714,-252.1628 494.5456,-260.3091 498.1471,-254.3066"/>
</g>
<!-- 22&#45;&gt;18 -->
<g id="edge29" class="edge">
<title>22&#45;&gt;18</title>
<path fill="none" stroke="#c0c0c0" stroke-width="2" d="M577.5,-287.7623C577.5,-263.201 577.5,-219.2474 577.5,-190.3541"/>
<polygon fill="#c0c0c0" stroke="#c0c0c0" stroke-width="2" points="581.0001,-190.0896 577.5,-180.0896 574.0001,-190.0897 581.0001,-190.0896"/>
</g>
<!-- 22&#45;&gt;21 -->
<g id="edge40" class="edge">
<title>22&#45;&gt;21</title>
<path fill="none" stroke="#c0c0c0" stroke-width="2" d="M600.351,-287.9122C637.694,-256.2267 703.8824,-189.7115 664.5,-144 645.0748,-121.4529 459.7745,-102.9191 362.4961,-94.6493"/>
<polygon fill="#c0c0c0" stroke="#c0c0c0" stroke-width="2" points="362.7682,-91.1599 352.5102,-93.8102 362.182,-98.1353 362.7682,-91.1599"/>
</g>
<!-- 23&#45;&gt;21 -->
<g id="edge33" class="edge">
<title>23&#45;&gt;21</title>
<path fill="none" stroke="#c0c0c0" stroke-width="2" d="M107.3238,-215.8987C121.1348,-195.9667 145.6694,-164.0879 173.5,-144 194.9225,-128.5374 221.4346,-116.5045 244.9175,-107.762"/>
<polygon fill="#c0c0c0" stroke="#c0c0c0" stroke-width="2" points="246.2079,-111.0174 254.43,-104.3355 243.8356,-104.4316 246.2079,-111.0174"/>
</g>
<!-- 25 -->
<g id="node26" class="node">
<title>25</title>
<path fill="none" stroke="#568ad8" stroke-width="2" stroke-dasharray="5,2" d="M109,-180C109,-180 12,-180 12,-180 6,-180 0,-174 0,-168 0,-168 0,-156 0,-156 0,-150 6,-144 12,-144 12,-144 109,-144 109,-144 115,-144 121,-150 121,-156 121,-156 121,-168 121,-168 121,-174 115,-180 109,-180"/>
<text text-anchor="middle" x="60.5" y="-159.5" font-family="sans" font-size="10.00" fill="#000000">GO_term_enrichment</text>
</g>
<!-- 23&#45;&gt;25 -->
<g id="edge47" class="edge">
<title>23&#45;&gt;25</title>
<path fill="none" stroke="#c0c0c0" stroke-width="2" d="M86.668,-215.8314C82.8014,-207.8771 78.1794,-198.369 73.9032,-189.5723"/>
<polygon fill="#c0c0c0" stroke="#c0c0c0" stroke-width="2" points="76.9707,-187.8768 69.4509,-180.4133 70.6751,-190.9371 76.9707,-187.8768"/>
</g>
<!-- 24&#45;&gt;3 -->
<g id="edge8" class="edge">
<title>24&#45;&gt;3</title>
<path fill="none" stroke="#c0c0c0" stroke-width="2" d="M206.1365,-791.8314C228.2042,-782.2018 255.4907,-770.295 278.7857,-760.1299"/>
<polygon fill="#c0c0c0" stroke="#c0c0c0" stroke-width="2" points="280.3974,-763.2454 288.1629,-756.038 277.5977,-756.8296 280.3974,-763.2454"/>
</g>
<!-- 24&#45;&gt;29 -->
<g id="edge55" class="edge">
<title>24&#45;&gt;29</title>
<path fill="none" stroke="#c0c0c0" stroke-width="2" d="M168.0224,-791.8955C173.0018,-764.6824 181.5,-711.5642 181.5,-666 181.5,-666 181.5,-666 181.5,-594 181.5,-537.9393 236.7239,-496.6363 279.705,-472.9797"/>
<polygon fill="#c0c0c0" stroke="#c0c0c0" stroke-width="2" points="281.4899,-475.9945 288.6666,-468.2006 278.1959,-469.818 281.4899,-475.9945"/>
</g>
<!-- 25&#45;&gt;7 -->
<g id="edge12" class="edge">
<title>25&#45;&gt;7</title>
<path fill="none" stroke="#c0c0c0" stroke-width="2" d="M83.4631,-143.8314C94.6715,-134.9632 108.3209,-124.1637 120.4439,-114.5718"/>
<polygon fill="#c0c0c0" stroke="#c0c0c0" stroke-width="2" points="122.8737,-117.1125 128.5442,-108.1628 118.5303,-111.6229 122.8737,-117.1125"/>
</g>
<!-- 25&#45;&gt;21 -->
<g id="edge35" class="edge">
<title>25&#45;&gt;21</title>
<path fill="none" stroke="#c0c0c0" stroke-width="2" d="M121.1923,-144.0171C158.8733,-132.8524 207.0675,-118.5726 244.4392,-107.4995"/>
<polygon fill="#c0c0c0" stroke="#c0c0c0" stroke-width="2" points="245.5899,-110.809 254.1835,-104.6123 243.6012,-104.0974 245.5899,-110.809"/>
</g>
<!-- 26&#45;&gt;28 -->
<g id="edge53" class="edge">
<title>26&#45;&gt;28</title>
<path fill="none" stroke="#c0c0c0" stroke-width="2" d="M525.6031,-503.8314C530.5674,-495.7079 536.5222,-485.9637 541.9928,-477.0118"/>
<polygon fill="#c0c0c0" stroke="#c0c0c0" stroke-width="2" points="545.0194,-478.7712 547.2474,-468.4133 539.0464,-475.121 545.0194,-478.7712"/>
</g>
<!-- 26&#45;&gt;29 -->
<g id="edge56" class="edge">
<title>26&#45;&gt;29</title>
<path fill="none" stroke="#c0c0c0" stroke-width="2" d="M467.8167,-503.8314C442.7441,-494.0734 411.6633,-481.977 385.3191,-471.7242"/>
<polygon fill="#c0c0c0" stroke="#c0c0c0" stroke-width="2" points="386.4362,-468.4033 375.8476,-468.038 383.8973,-474.9266 386.4362,-468.4033"/>
</g>
<!-- 27 -->
<g id="node28" class="node">
<title>27</title>
<path fill="none" stroke="#56d8c1" stroke-width="2" stroke-dasharray="5,2" d="M461,-396C461,-396 312,-396 312,-396 306,-396 300,-390 300,-384 300,-384 300,-372 300,-372 300,-366 306,-360 312,-360 312,-360 461,-360 461,-360 467,-360 473,-366 473,-372 473,-372 473,-384 473,-384 473,-390 467,-396 461,-396"/>
<text text-anchor="middle" x="386.5" y="-375.5" font-family="sans" font-size="10.00" fill="#000000">process_poor_mapped_samples</text>
</g>
<!-- 27&#45;&gt;13 -->
<g id="edge24" class="edge">
<title>27&#45;&gt;13</title>
<path fill="none" stroke="#c0c0c0" stroke-width="2" d="M357.4806,-359.8314C342.7714,-350.6221 324.7356,-339.3301 308.9878,-329.4706"/>
<polygon fill="#c0c0c0" stroke="#c0c0c0" stroke-width="2" points="310.8433,-326.5029 300.5101,-324.1628 307.1286,-332.436 310.8433,-326.5029"/>
</g>
<!-- 27&#45;&gt;22 -->
<g id="edge43" class="edge">
<title>27&#45;&gt;22</title>
<path fill="none" stroke="#c0c0c0" stroke-width="2" d="M434.6974,-359.8314C460.6966,-350.0306 492.9536,-337.8709 520.2281,-327.5894"/>
<polygon fill="#c0c0c0" stroke="#c0c0c0" stroke-width="2" points="521.5266,-330.8404 529.6492,-324.038 519.0574,-324.2904 521.5266,-330.8404"/>
</g>
<!-- 28&#45;&gt;13 -->
<g id="edge23" class="edge">
<title>28&#45;&gt;13</title>
<path fill="none" stroke="#c0c0c0" stroke-width="2" d="M548.0514,-431.8771C535.2427,-411.3076 511.6086,-378.2513 482.5,-360 453.6851,-341.9328 419.0712,-329.8953 386.2904,-321.8808"/>
<polygon fill="#c0c0c0" stroke="#c0c0c0" stroke-width="2" points="386.7183,-318.3866 376.1844,-319.5205 385.1262,-325.2032 386.7183,-318.3866"/>
</g>
<!-- 28&#45;&gt;22 -->
<g id="edge42" class="edge">
<title>28&#45;&gt;22</title>
<path fill="none" stroke="#c0c0c0" stroke-width="2" d="M560.9064,-431.7623C564.1471,-407.201 569.9465,-363.2474 573.7588,-334.3541"/>
<polygon fill="#c0c0c0" stroke="#c0c0c0" stroke-width="2" points="577.2749,-334.4616 575.1132,-324.0896 570.3351,-333.5458 577.2749,-334.4616"/>
</g>
<!-- 28&#45;&gt;27 -->
<g id="edge49" class="edge">
<title>28&#45;&gt;27</title>
<path fill="none" stroke="#c0c0c0" stroke-width="2" d="M515.0971,-431.8314C491.9909,-422.159 463.3962,-410.1891 439.0423,-399.9944"/>
<polygon fill="#c0c0c0" stroke="#c0c0c0" stroke-width="2" points="440.1667,-396.6709 429.5908,-396.038 437.4637,-403.128 440.1667,-396.6709"/>
</g>
<!-- 29&#45;&gt;13 -->
<g id="edge25" class="edge">
<title>29&#45;&gt;13</title>
<path fill="none" stroke="#c0c0c0" stroke-width="2" d="M313.8098,-431.6184C306.046,-421.6569 297.1509,-408.7931 291.5,-396 282.796,-376.2947 277.7161,-352.4336 274.8554,-334.2327"/>
<polygon fill="#c0c0c0" stroke="#c0c0c0" stroke-width="2" points="278.3067,-333.6435 273.4168,-324.2446 271.3782,-334.6414 278.3067,-333.6435"/>
</g>
<!-- 29&#45;&gt;22 -->
<g id="edge44" class="edge">
<title>29&#45;&gt;22</title>
<path fill="none" stroke="#c0c0c0" stroke-width="2" d="M394.7207,-433.5868C422.9353,-424.852 455.5849,-412.4587 482.5,-396 510.9044,-378.6306 537.92,-351.6546 555.8287,-331.7625"/>
<polygon fill="#c0c0c0" stroke="#c0c0c0" stroke-width="2" points="558.4637,-334.0662 562.461,-324.2544 553.2174,-329.4319 558.4637,-334.0662"/>
</g>
<!-- 29&#45;&gt;27 -->
<g id="edge50" class="edge">
<title>29&#45;&gt;27</title>
<path fill="none" stroke="#c0c0c0" stroke-width="2" d="M343.8835,-431.8314C350.4486,-423.5386 358.3507,-413.557 365.5578,-404.4533"/>
<polygon fill="#c0c0c0" stroke="#c0c0c0" stroke-width="2" points="368.4599,-406.4262 371.9228,-396.4133 362.9716,-402.0813 368.4599,-406.4262"/>
</g>
</g>
</svg>
