<?xml version="1.0" encoding="utf-8"?>
<!-- Generator: Adobe Illustrator 20.1.0, SVG Export Plug-In . SVG Version: 6.00 Build 0)  -->
<svg version="1.1" id="Layer_1" xmlns="http://www.w3.org/2000/svg" xmlns:xlink="http://www.w3.org/1999/xlink" x="0px" y="0px"
	 viewBox="0 0 145.3 76.5" style="enable-background:new 0 0 145.3 76.5;" xml:space="preserve">
<style type="text/css">
	.st0{fill:none;}
	.st1{font-family:'HelveticaNeue-Medium';}
	.st2{font-size:12px;}
</style>
<g>
	<path d="M93.4,14v22.5h-3.9l0,0V26.4H79.2v10.2h-3.9V14h3.9v9h10.3v-9l0,0H93.4z M71.3,36.6L71.3,36.6h-3.9V14h3.9V36.6z
		 M63.5,36.6L63.5,36.6h-4.2L49.1,20H49v16.6h-3.8l0,0V14l0,0h4.2l0,0l10.3,16.6l0,0V14h3.8V36.6z M107.3,25.2L93.4,0H42
		c-2.6,0-4.6,2.1-4.6,4.6v41.1c0,2.6,2.1,4.6,4.6,4.6h51.3L107.3,25.2z"/>
	<path d="M96.8,50.4l14-25.2L96.9,0h3.5c1.9,0,4.2,1.4,5.1,3l12.2,22.2l-12.3,22.2c-0.9,1.7-3.2,3-5.2,3H96.8z"/>
	<path class="st0" d="M96.8,50.4l14-25.2L96.9,0h3.5c1.9,0,4.2,1.4,5.1,3l12.2,22.2l-12.3,22.2c-0.9,1.7-3.2,3-5.2,3H96.8z"/>
</g>
<text transform="matrix(1 0 0 1 13.2796 64.2545)" class="st1 st2">National Eye Institute</text>
</svg>
