<?xml version="1.0" encoding="utf-8"?>
<!-- Generator: Adobe Illustrator 24.2.1, SVG Export Plug-In . SVG Version: 6.00 Build 0)  -->
<svg version="1.1" id="Layer_1" xmlns="http://www.w3.org/2000/svg" xmlns:xlink="http://www.w3.org/1999/xlink" x="0px" y="0px"
	 viewBox="0 0 210.7 50.5" style="enable-background:new 0 0 210.7 50.5;" xml:space="preserve">
<style type="text/css">
	.st0{fill:#FFFFFF;}
	.st1{font-family:'HelveticaNeue-Medium';}
	.st2{font-size:12px;}
</style>
<g>
	<path class="st0" d="M64,14.1v22.5h-3.9l0,0V26.5H49.8v10.2h-3.9V14.1h3.9v9h10.3v-9l0,0H64z M41.9,36.7L41.9,36.7H38V14.1h3.9
		V36.7z M34.1,36.7L34.1,36.7h-4.2L19.7,20.1h-0.1v16.6h-3.8l0,0V14.1l0,0H20l0,0l10.3,16.6l0,0V14.1h3.8
		C34.1,14.1,34.1,36.7,34.1,36.7z M77.9,25.3L64,0.1H12.6C10,0.1,8,2.2,8,4.7v41.1c0,2.6,2.1,4.6,4.6,4.6h51.3L77.9,25.3z"/>
	<path class="st0" d="M67.4,50.5l14-25.2L67.5,0.1H71c1.9,0,4.2,1.4,5.1,3l12.2,22.2L76,47.5c-0.9,1.7-3.2,3-5.2,3H67.4z"/>
	<path class="st0" d="M67.4,50.5l14-25.2L67.5,0.1H71c1.9,0,4.2,1.4,5.1,3l12.2,22.2L76,47.5c-0.9,1.7-3.2,3-5.2,3H67.4z"/>
</g>
<text transform="matrix(1 0 0 1 91.5298 29.9746)" class="st0 st1 st2">National Eye Institute</text>
</svg>
